<?xml version="1.0" standalone="no"?>
<!DOCTYPE svg PUBLIC "-//W3C//DTD SVG 1.1//EN" "http://www.w3.org/Graphics/SVG/1.1/DTD/svg11.dtd">
<svg width="46.987500000000026mm" height="148.5875mm"
 viewBox="0 0 46.987500000000026 148.5875"
 xmlns="http://www.w3.org/2000/svg" version="1.1"
 xmlns:xlink="http://www.w3.org/1999/xlink">
<desc>Output from Flights of Ideas SVG Sketchup Plugin</desc>

  <path id="face0-cut"
 style="fill:none;stroke:#0000FF;stroke-width:0.25;stroke-miterlimit:4;stroke-dasharray:none;stroke-linejoin:round;stroke-linecap:round"
        d="M 36.987500000000026,138.5875 L 36.9875,10.0 L 10.0,10.000000000000014 L 10.0,138.5875 L 36.987500000000026,138.5875 M 25.08125000000021,26.66875000000003 L 24.918971747701875,27.901375702300783 L 24.44319598552363,29.050000000000026 L 23.686346045401166,30.03634604540096 L 22.700000000000216,30.793195985523433 L 21.55137570230096,31.26897174770172 L 20.318750000000193,31.43125000000005 L 19.086124297699456,31.268971747701734 L 17.937500000000227,30.793195985523404 L 16.951153954599278,30.03634604540097 L 16.194304014476813,29.050000000000047 L 15.718528252298512,27.901375702300797 L 15.556250000000233,26.66875000000001 L 15.718528252298483,25.436124297699287 L 16.194304014476813,24.287500000000044 L 16.951153954599278,23.30115395459911 L 17.9375000000002,22.544304014476644 L 19.086124297699456,22.06852825229835 L 20.318750000000193,21.90625000000002 L 21.55137570230093,22.06852825229837 L 22.70000000000016,22.54430401447666 L 23.686346045401137,23.301153954599094 L 24.443195985523545,24.28750000000006 L 24.918971747701875,25.436124297699287 L 25.08125000000021,26.66875000000003 M 25.243528252298375,37.42637570230075 L 25.08125000000004,36.193750000000016 L 25.243528252298347,34.961124297699264 L 25.719304014476677,33.812500000000014 L 26.476153954599113,32.826153954599086 L 27.462500000000063,32.06930401447662 L 28.611124297699263,31.59352825229835 L 29.843750000000057,31.431250000000034 L 31.076375702300794,31.593528252298334 L 32.22500000000002,32.06930401447662 L 33.21134604540097,32.826153954599086 L 33.96819598552341,33.812500000000014 L 34.44397174770175,34.96112429769925 L 34.60625000000003,36.193750000000016 L 34.44397174770175,37.42637570230075 L 33.968195985523394,38.57500000000001 L 33.21134604540097,39.56134604540093 L 32.22500000000005,40.318195985523396 L 31.076375702300766,40.79397174770171 L 29.84375000000003,40.95625000000002 L 28.61112429769932,40.79397174770168 L 27.462500000000063,40.318195985523396 L 26.476153954599113,39.56134604540093 L 25.71930401447665,38.575000000000024 L 25.243528252298375,37.42637570230075 M 34.443971747701696,16.058407871870195 L 34.60625000000003,17.29103357417096 L 34.443971747701696,18.52365927647172 L 33.968195985523394,19.67228357417097 L 33.21134604540097,20.658629619571883 L 32.22500000000002,21.415479559694333 L 31.076375702300737,21.89125532187265 L 29.84375000000003,22.053533574170956 L 28.611124297699263,21.891255321872634 L 27.462500000000034,21.415479559694347 L 26.476153954599084,20.658629619571883 L 25.71930401447665,19.672283574170955 L 25.24352825229832,18.523659276471683 L 25.08125000000004,17.29103357417096 L 25.24352825229829,16.05840787187021 L 25.71930401447665,14.909783574170945 L 26.476153954599056,13.923437528770023 L 27.462500000000034,13.16658758864758 L 28.611124297699263,12.690811826469258 L 29.843750000000057,12.528533574170972 L 31.076375702300766,12.69081182646925 L 32.22500000000002,13.166587588647566 L 33.211346045400944,13.92343752877003 L 33.96819598552341,14.909783574170966 L 34.443971747701696,16.058407871870195 M 29.05000000000001,125.88750000000002 L 28.833628996935573,127.53100093640103 L 28.19926131403119,129.06250000000003 L 27.190128060534562,130.3776280605346 L 25.875,131.38676131403122 L 24.343500936401,132.02112899693557 L 22.700000000000017,132.2375 L 21.056499063599006,132.0211289969356 L 19.525000000000006,131.3867613140312 L 18.209871939465415,130.37762806053462 L 17.200738685968787,129.0625 L 16.566371003064404,127.53100093640103 L 16.349999999999994,125.88750000000002 L 16.566371003064404,124.243999063599 L 17.200738685968815,122.71250000000003 L 18.209871939465415,121.39737193946544 L 19.525000000000006,120.38823868596884 L 21.056499063598977,119.75387100306443 L 22.700000000000017,119.53750000000002 L 24.343500936401,119.75387100306443 L 25.875,120.38823868596887 L 27.190128060534562,121.39737193946542 L 28.19926131403119,122.71250000000003 L 28.833628996935573,124.24399906359898 L 29.05000000000001,125.88750000000002 "
  />
  <path id="face0-interior"
 style="fill:none;stroke:#FF0000;stroke-width:0.25;stroke-miterlimit:4;stroke-dasharray:none;stroke-linejoin:round;stroke-linecap:round"
        d="M 36.987500000000026,138.5875 M 36.9875,10.0 M 10.0,10.000000000000014 M 10.0,138.5875 M 25.08125000000021,26.66875000000003 M 24.918971747701875,27.901375702300783 M 24.44319598552363,29.050000000000026 M 23.686346045401166,30.03634604540096 M 22.700000000000216,30.793195985523433 M 21.55137570230096,31.26897174770172 M 20.318750000000193,31.43125000000005 M 19.086124297699456,31.268971747701734 M 17.937500000000227,30.793195985523404 M 16.951153954599278,30.03634604540097 M 16.194304014476813,29.050000000000047 M 15.718528252298512,27.901375702300797 M 15.556250000000233,26.66875000000001 M 15.718528252298483,25.436124297699287 M 16.194304014476813,24.287500000000044 M 16.951153954599278,23.30115395459911 M 17.9375000000002,22.544304014476644 M 19.086124297699456,22.06852825229835 M 20.318750000000193,21.90625000000002 M 21.55137570230093,22.06852825229837 M 22.70000000000016,22.54430401447666 M 23.686346045401137,23.301153954599094 M 24.443195985523545,24.28750000000006 M 24.918971747701875,25.436124297699287 M 25.243528252298375,37.42637570230075 M 25.08125000000004,36.193750000000016 M 25.243528252298347,34.961124297699264 M 25.719304014476677,33.812500000000014 M 26.476153954599113,32.826153954599086 M 27.462500000000063,32.06930401447662 M 28.611124297699263,31.59352825229835 M 29.843750000000057,31.431250000000034 M 31.076375702300794,31.593528252298334 M 32.22500000000002,32.06930401447662 M 33.21134604540097,32.826153954599086 M 33.96819598552341,33.812500000000014 M 34.44397174770175,34.96112429769925 M 34.60625000000003,36.193750000000016 M 34.44397174770175,37.42637570230075 M 33.968195985523394,38.57500000000001 M 33.21134604540097,39.56134604540093 M 32.22500000000005,40.318195985523396 M 31.076375702300766,40.79397174770171 M 29.84375000000003,40.95625000000002 M 28.61112429769932,40.79397174770168 M 27.462500000000063,40.318195985523396 M 26.476153954599113,39.56134604540093 M 25.71930401447665,38.575000000000024 M 34.443971747701696,16.058407871870195 M 34.60625000000003,17.29103357417096 M 34.443971747701696,18.52365927647172 M 33.968195985523394,19.67228357417097 M 33.21134604540097,20.658629619571883 M 32.22500000000002,21.415479559694333 M 31.076375702300737,21.89125532187265 M 29.84375000000003,22.053533574170956 M 28.611124297699263,21.891255321872634 M 27.462500000000034,21.415479559694347 M 26.476153954599084,20.658629619571883 M 25.71930401447665,19.672283574170955 M 25.24352825229832,18.523659276471683 M 25.08125000000004,17.29103357417096 M 25.24352825229829,16.05840787187021 M 25.71930401447665,14.909783574170945 M 26.476153954599056,13.923437528770023 M 27.462500000000034,13.16658758864758 M 28.611124297699263,12.690811826469258 M 29.843750000000057,12.528533574170972 M 31.076375702300766,12.69081182646925 M 32.22500000000002,13.166587588647566 M 33.211346045400944,13.92343752877003 M 33.96819598552341,14.909783574170966 M 29.05000000000001,125.88750000000002 M 28.833628996935573,127.53100093640103 M 28.19926131403119,129.06250000000003 M 27.190128060534562,130.3776280605346 M 25.875,131.38676131403122 M 24.343500936401,132.02112899693557 M 22.700000000000017,132.2375 M 21.056499063599006,132.0211289969356 M 19.525000000000006,131.3867613140312 M 18.209871939465415,130.37762806053462 M 17.200738685968787,129.0625 M 16.566371003064404,127.53100093640103 M 16.349999999999994,125.88750000000002 M 16.566371003064404,124.243999063599 M 17.200738685968815,122.71250000000003 M 18.209871939465415,121.39737193946544 M 19.525000000000006,120.38823868596884 M 21.056499063598977,119.75387100306443 M 22.700000000000017,119.53750000000002 M 24.343500936401,119.75387100306443 M 25.875,120.38823868596887 M 27.190128060534562,121.39737193946542 M 28.19926131403119,122.71250000000003 M 28.833628996935573,124.24399906359898 "
  />
  <path id="face0-interior"
 style="fill:none;stroke:#00FF00;stroke-width:0.25;stroke-miterlimit:4;stroke-dasharray:none;stroke-linejoin:round;stroke-linecap:round"
        d="M 36.987500000000026,138.5875 M 36.9875,10.0 M 10.0,10.000000000000014 M 10.0,138.5875 M 25.08125000000021,26.66875000000003 M 24.918971747701875,27.901375702300783 M 24.44319598552363,29.050000000000026 M 23.686346045401166,30.03634604540096 M 22.700000000000216,30.793195985523433 M 21.55137570230096,31.26897174770172 M 20.318750000000193,31.43125000000005 M 19.086124297699456,31.268971747701734 M 17.937500000000227,30.793195985523404 M 16.951153954599278,30.03634604540097 M 16.194304014476813,29.050000000000047 M 15.718528252298512,27.901375702300797 M 15.556250000000233,26.66875000000001 M 15.718528252298483,25.436124297699287 M 16.194304014476813,24.287500000000044 M 16.951153954599278,23.30115395459911 M 17.9375000000002,22.544304014476644 M 19.086124297699456,22.06852825229835 M 20.318750000000193,21.90625000000002 M 21.55137570230093,22.06852825229837 M 22.70000000000016,22.54430401447666 M 23.686346045401137,23.301153954599094 M 24.443195985523545,24.28750000000006 M 24.918971747701875,25.436124297699287 M 25.243528252298375,37.42637570230075 M 25.08125000000004,36.193750000000016 M 25.243528252298347,34.961124297699264 M 25.719304014476677,33.812500000000014 M 26.476153954599113,32.826153954599086 M 27.462500000000063,32.06930401447662 M 28.611124297699263,31.59352825229835 M 29.843750000000057,31.431250000000034 M 31.076375702300794,31.593528252298334 M 32.22500000000002,32.06930401447662 M 33.21134604540097,32.826153954599086 M 33.96819598552341,33.812500000000014 M 34.44397174770175,34.96112429769925 M 34.60625000000003,36.193750000000016 M 34.44397174770175,37.42637570230075 M 33.968195985523394,38.57500000000001 M 33.21134604540097,39.56134604540093 M 32.22500000000005,40.318195985523396 M 31.076375702300766,40.79397174770171 M 29.84375000000003,40.95625000000002 M 28.61112429769932,40.79397174770168 M 27.462500000000063,40.318195985523396 M 26.476153954599113,39.56134604540093 M 25.71930401447665,38.575000000000024 M 34.443971747701696,16.058407871870195 M 34.60625000000003,17.29103357417096 M 34.443971747701696,18.52365927647172 M 33.968195985523394,19.67228357417097 M 33.21134604540097,20.658629619571883 M 32.22500000000002,21.415479559694333 M 31.076375702300737,21.89125532187265 M 29.84375000000003,22.053533574170956 M 28.611124297699263,21.891255321872634 M 27.462500000000034,21.415479559694347 M 26.476153954599084,20.658629619571883 M 25.71930401447665,19.672283574170955 M 25.24352825229832,18.523659276471683 M 25.08125000000004,17.29103357417096 M 25.24352825229829,16.05840787187021 M 25.71930401447665,14.909783574170945 M 26.476153954599056,13.923437528770023 M 27.462500000000034,13.16658758864758 M 28.611124297699263,12.690811826469258 M 29.843750000000057,12.528533574170972 M 31.076375702300766,12.69081182646925 M 32.22500000000002,13.166587588647566 M 33.211346045400944,13.92343752877003 M 33.96819598552341,14.909783574170966 M 29.05000000000001,125.88750000000002 M 28.833628996935573,127.53100093640103 M 28.19926131403119,129.06250000000003 M 27.190128060534562,130.3776280605346 M 25.875,131.38676131403122 M 24.343500936401,132.02112899693557 M 22.700000000000017,132.2375 M 21.056499063599006,132.0211289969356 M 19.525000000000006,131.3867613140312 M 18.209871939465415,130.37762806053462 M 17.200738685968787,129.0625 M 16.566371003064404,127.53100093640103 M 16.349999999999994,125.88750000000002 M 16.566371003064404,124.243999063599 M 17.200738685968815,122.71250000000003 M 18.209871939465415,121.39737193946544 M 19.525000000000006,120.38823868596884 M 21.056499063598977,119.75387100306443 M 22.700000000000017,119.53750000000002 M 24.343500936401,119.75387100306443 M 25.875,120.38823868596887 M 27.190128060534562,121.39737193946542 M 28.19926131403119,122.71250000000003 M 28.833628996935573,124.24399906359898 "
  />
</svg>
