 0
SECTION
 2
ENTITIES
  0
POLYLINE
 8
Group#2
 66
     1
70
    8
 10
0.0
 20
 0.0
 30
0.0
  0
VERTEX
  8
MY3DLAYER
10
-4.717412497679152
20
3.877992714980124
30
2.8449465006019636e-16
 70
     32
  0
VERTEX
  8
MY3DLAYER
10
0.3450875023208484
20
3.877992714980124
30
2.8449465006019636e-16
 70
     32
  0
VERTEX
  8
MY3DLAYER
10
0.3450875023208484
20
2.815492714980124
30
2.8449465006019636e-16
 70
     32
  0
VERTEX
  8
MY3DLAYER
10
-4.717412497679152
20
2.815492714980124
30
2.8449465006019636e-16
 70
     32
  0
VERTEX
  8
MY3DLAYER
10
-4.717412497679152
20
3.877992714980124
30
2.8449465006019636e-16
 70
     32
  0
SEQEND
  0
POLYLINE
 8
Group#2
 66
     1
70
    8
 10
0.0
 20
 0.0
 30
0.0
  0
VERTEX
  8
MY3DLAYER
10
-0.3111624976791524
20
3.409242714980132
30
-6.266301588364808e-15
 70
     32
  0
VERTEX
  8
MY3DLAYER
10
-0.35969106863587497
20
3.4028538074093317
30
-6.356942354091286e-15
 70
     32
  0
VERTEX
  8
MY3DLAYER
10
-0.4049124976791524
20
3.384122478189714
30
-5.99864493816021e-15
 70
     32
  0
VERTEX
  8
MY3DLAYER
10
-0.4437450191516301
20
3.3543252364526097
30
-5.215826717352808e-15
 70
     32
  0
VERTEX
  8
MY3DLAYER
10
-0.47354226088873475
20
3.315492714980132
30
-4.0618354597488265e-15
 70
     32
  0
VERTEX
  8
MY3DLAYER
10
-0.4922735901083528
20
3.270271285936855
30
-2.6153137624932552e-15
 70
     32
  0
VERTEX
  8
MY3DLAYER
10
-0.4986624976791525
20
3.221742714980132
30
-9.748396887639292e-16
 70
     32
  0
VERTEX
  8
MY3DLAYER
10
-0.4922735901083529
20
3.173214144023409
30
7.477911643260833e-16
 70
     32
  0
VERTEX
  8
MY3DLAYER
10
-0.47354226088873486
20
3.127992714980132
30
2.4351843509207847e-15
 70
     32
  0
VERTEX
  8
MY3DLAYER
10
-0.44374501915163034
20
3.089160193507654
30
3.9723468139028354e-15
 70
     32
  0
VERTEX
  8
MY3DLAYER
10
-0.4049124976791527
20
3.0593629517705496
30
5.254523471701085e-15
 70
     32
  0
VERTEX
  8
MY3DLAYER
10
-0.3596910686358754
20
3.040631622550931
30
6.194336103983696e-15
 70
     32
  0
VERTEX
  8
MY3DLAYER
10
-0.3111624976791527
20
3.034242714980132
30
6.727738032974416e-15
 70
     32
  0
VERTEX
  8
MY3DLAYER
10
-0.26263392672243013
20
3.040631622550931
30
6.8183787987008956e-15
 70
     32
  0
VERTEX
  8
MY3DLAYER
10
-0.21741249767915272
20
3.0593629517705496
30
6.46008138276982e-15
 70
     32
  0
VERTEX
  8
MY3DLAYER
10
-0.1785799762066751
20
3.089160193507654
30
5.6772631619624174e-15
 70
     32
  0
VERTEX
  8
MY3DLAYER
10
-0.14878273446957047
20
3.127992714980132
30
4.523271904358436e-15
 70
     32
  0
VERTEX
  8
MY3DLAYER
10
-0.1300514052499524
20
3.173214144023409
30
3.0767502071028674e-15
 70
     32
  0
VERTEX
  8
MY3DLAYER
10
-0.1236624976791525
20
3.221742714980132
30
1.4362761333735387e-15
 70
     32
  0
VERTEX
  8
MY3DLAYER
10
-0.13005140524995218
20
3.270271285936854
30
-2.863547197164725e-16
 70
     32
  0
VERTEX
  8
MY3DLAYER
10
-0.14878273446957024
20
3.315492714980131
30
-1.9737479063111726e-15
 70
     32
  0
VERTEX
  8
MY3DLAYER
10
-0.17857997620667487
20
3.354325236452609
30
-3.5109103692932264e-15
 70
     32
  0
VERTEX
  8
MY3DLAYER
10
-0.21741249767915227
20
3.384122478189714
30
-4.7930870270914735e-15
 70
     32
  0
VERTEX
  8
MY3DLAYER
10
-0.2626339267224296
20
3.4028538074093317
30
-5.7328996593740844e-15
 70
     32
  0
VERTEX
  8
MY3DLAYER
10
-0.3111624976791524
20
3.409242714980132
30
-6.266301588364808e-15
 70
     32
  0
SEQEND
  0
POLYLINE
 8
Group#2
 66
     1
70
    8
 10
0.0
 20
 0.0
 30
0.0
  0
VERTEX
  8
MY3DLAYER
10
-0.7346910686358741
20
3.415631622550926
30
-1.170412900546023e-15
 70
     32
  0
VERTEX
  8
MY3DLAYER
10
-0.6861624976791515
20
3.4092427149801257
30
-1.0567880867606047e-15
 70
     32
  0
VERTEX
  8
MY3DLAYER
10
-0.637633926722429
20
3.415631622550926
30
-1.017765452099054e-15
 70
     32
  0
VERTEX
  8
MY3DLAYER
10
-0.5924124976791518
20
3.4343629517705434
30
-1.0560043246256019e-15
 70
     32
  0
VERTEX
  8
MY3DLAYER
10
-0.5535799762066742
20
3.464160193507648
30
-1.1688987883702888e-15
 70
     32
  0
VERTEX
  8
MY3DLAYER
10
-0.5237827344695697
20
3.5029927149801257
30
-1.3487552721958376e-15
 70
     32
  0
VERTEX
  8
MY3DLAYER
10
-0.5050514052499516
20
3.5482141440234027
30
-1.5833168539564295e-15
 70
     32
  0
VERTEX
  8
MY3DLAYER
10
-0.49866249767915194
20
3.5967427149801257
30
-1.856598549486423e-15
 70
     32
  0
VERTEX
  8
MY3DLAYER
10
-0.5050514052499516
20
3.6452712859368477
30
-2.1499766628548017e-15
 70
     32
  0
VERTEX
  8
MY3DLAYER
10
-0.5237827344695696
20
3.6904927149801248
30
-2.4434579604657684e-15
 70
     32
  0
VERTEX
  8
MY3DLAYER
10
-0.5535799762066741
20
3.7293252364526026
30
-2.7170421768879122e-15
 70
     32
  0
VERTEX
  8
MY3DLAYER
10
-0.5924124976791516
20
3.759122478189707
30
-2.952084999891357e-15
 70
     32
  0
VERTEX
  8
MY3DLAYER
10
-0.6376339267224288
20
3.7778538074093255
30
-3.132568649515049e-15
 70
     32
  0
VERTEX
  8
MY3DLAYER
10
-0.6861624976791515
20
3.7842427149801248
30
-3.246193463300467e-15
 70
     32
  0
VERTEX
  8
MY3DLAYER
10
-0.734691068635874
20
3.7778538074093255
30
-3.285216097962018e-15
 70
     32
  0
VERTEX
  8
MY3DLAYER
10
-0.7799124976791513
20
3.759122478189707
30
-3.2469772254354704e-15
 70
     32
  0
VERTEX
  8
MY3DLAYER
10
-0.8187450191516288
20
3.7293252364526026
30
-3.134082761690783e-15
 70
     32
  0
VERTEX
  8
MY3DLAYER
10
-0.8485422608887334
20
3.6904927149801257
30
-2.954226277865234e-15
 70
     32
  0
VERTEX
  8
MY3DLAYER
10
-0.8672735901083514
20
3.6452712859368477
30
-2.719664696104642e-15
 70
     32
  0
VERTEX
  8
MY3DLAYER
10
-0.873662497679151
20
3.5967427149801257
30
-2.4463830005746493e-15
 70
     32
  0
VERTEX
  8
MY3DLAYER
10
-0.8672735901083514
20
3.5482141440234027
30
-2.15300488720627e-15
 70
     32
  0
VERTEX
  8
MY3DLAYER
10
-0.8485422608887334
20
3.5029927149801257
30
-1.859523589595303e-15
 70
     32
  0
VERTEX
  8
MY3DLAYER
10
-0.8187450191516288
20
3.464160193507648
30
-1.5859393731731597e-15
 70
     32
  0
VERTEX
  8
MY3DLAYER
10
-0.7799124976791514
20
3.4343629517705434
30
-1.350896550169715e-15
 70
     32
  0
VERTEX
  8
MY3DLAYER
10
-0.7346910686358741
20
3.415631622550926
30
-1.170412900546023e-15
 70
     32
  0
SEQEND
  0
POLYLINE
 8
Group#2
 66
     1
70
    8
 10
0.0
 20
 0.0
 30
0.0
  0
VERTEX
  8
MY3DLAYER
10
0.10656750736532938
20
3.7778538074093246
30
-2.5785077016128243e-15
 70
     32
  0
VERTEX
  8
MY3DLAYER
10
0.05803893640860669
20
3.7842427149801248
30
-2.6682372317012983e-15
 70
     32
  0
VERTEX
  8
MY3DLAYER
10
0.009510365451883995
20
3.7778538074093246
30
-2.7608768254633357e-15
 70
     32
  0
VERTEX
  8
MY3DLAYER
10
-0.03571106359139331
20
3.759122478189707
30
-2.850113247678221e-15
 70
     32
  0
VERTEX
  8
MY3DLAYER
10
-0.07454358506387093
20
3.7293252364526026
30
-2.92986518364217e-15
 70
     32
  0
VERTEX
  8
MY3DLAYER
10
-0.10434082680097556
20
3.6904927149801248
30
-2.9946976707155457e-15
 70
     32
  0
VERTEX
  8
MY3DLAYER
10
-0.12307215602059363
20
3.645271285936847
30
-3.0401924820450483e-15
 70
     32
  0
VERTEX
  8
MY3DLAYER
10
-0.1294610635913933
20
3.5967427149801248
30
-3.0632492214223024e-15
 70
     32
  0
VERTEX
  8
MY3DLAYER
10
-0.12307215602059363
20
3.548214144023402
30
-3.062296610161812e-15
 70
     32
  0
VERTEX
  8
MY3DLAYER
10
-0.10434082680097556
20
3.5029927149801248
30
-3.037399567146714e-15
 70
     32
  0
VERTEX
  8
MY3DLAYER
10
-0.07454358506387093
20
3.464160193507647
30
-2.9902547847141795e-15
 70
     32
  0
VERTEX
  8
MY3DLAYER
10
-0.03571106359139331
20
3.4343629517705425
30
-2.9240751018765483e-15
 70
     32
  0
VERTEX
  8
MY3DLAYER
10
0.009510365451884217
20
3.415631622550924
30
-2.843370554652108e-15
 70
     32
  0
VERTEX
  8
MY3DLAYER
10
0.05803893640860669
20
3.4092427149801248
30
-2.7536410245636346e-15
 70
     32
  0
VERTEX
  8
MY3DLAYER
10
0.10656750736532938
20
3.415631622550924
30
-2.6610014308015976e-15
 70
     32
  0
VERTEX
  8
MY3DLAYER
10
0.1517889364086067
20
3.4343629517705425
30
-2.5717650085867124e-15
 70
     32
  0
VERTEX
  8
MY3DLAYER
10
0.1906214578810843
20
3.464160193507647
30
-2.4920130726227632e-15
 70
     32
  0
VERTEX
  8
MY3DLAYER
10
0.22041869961818894
20
3.5029927149801248
30
-2.4271805855493872e-15
 70
     32
  0
VERTEX
  8
MY3DLAYER
10
0.239150028837807
20
3.548214144023402
30
-2.3816857742198846e-15
 70
     32
  0
VERTEX
  8
MY3DLAYER
10
0.2455389364086067
20
3.5967427149801248
30
-2.3586290348426305e-15
 70
     32
  0
VERTEX
  8
MY3DLAYER
10
0.239150028837807
20
3.645271285936847
30
-2.359581646103121e-15
 70
     32
  0
VERTEX
  8
MY3DLAYER
10
0.22041869961818894
20
3.6904927149801248
30
-2.3844786891182187e-15
 70
     32
  0
VERTEX
  8
MY3DLAYER
10
0.1906214578810843
20
3.7293252364526026
30
-2.4316234715507534e-15
 70
     32
  0
VERTEX
  8
MY3DLAYER
10
0.1517889364086067
20
3.759122478189707
30
-2.4978031543883846e-15
 70
     32
  0
VERTEX
  8
MY3DLAYER
10
0.10656750736532938
20
3.7778538074093246
30
-2.5785077016128243e-15
 70
     32
  0
SEQEND
  0
POLYLINE
 8
Group#2
 66
     1
70
    8
 10
0.0
 20
 0.0
 30
0.0
  0
VERTEX
  8
MY3DLAYER
10
-4.217412497679152
20
3.565492714980124
30
-1.61987041405705e-16
 70
     32
  0
VERTEX
  8
MY3DLAYER
10
-4.282117258954782
20
3.5569741715523904
30
-1.161085253833216e-16
 70
     32
  0
VERTEX
  8
MY3DLAYER
10
-4.342412497679152
20
3.5319990659262332
30
-4.3402439134998565e-17
 70
     32
  0
VERTEX
  8
MY3DLAYER
10
-4.394189192975788
20
3.4922694102767604
30
5.117641771392944e-17
 70
     32
  0
VERTEX
  8
MY3DLAYER
10
-4.433918848625261
20
3.440492714980124
30
1.6118265236815896e-16
 70
     32
  0
VERTEX
  8
MY3DLAYER
10
-4.458893954251418
20
3.380197476255754
30
2.791195217299025e-16
 70
     32
  0
VERTEX
  8
MY3DLAYER
10
-4.467412497679152
20
3.315492714980124
30
3.9694982305204925e-16
 70
     32
  0
VERTEX
  8
MY3DLAYER
10
-4.458893954251418
20
3.250787953704494
30
5.066436160232744e-16
 70
     32
  0
VERTEX
  8
MY3DLAYER
10
-4.433918848625261
20
3.190492714980124
30
6.007254499301531e-16
 70
     32
  0
VERTEX
  8
MY3DLAYER
10
-4.394189192975788
20
3.1387160196834865
30
6.727838032695134e-16
 70
     32
  0
VERTEX
  8
MY3DLAYER
10
-4.342412497679152
20
3.0989863640340136
30
7.179080183433369e-16
 70
     32
  0
VERTEX
  8
MY3DLAYER
10
-4.282117258954782
20
3.0740112584078565
30
7.330229544656341e-16
 70
     32
  0
VERTEX
  8
MY3DLAYER
10
-4.217412497679152
20
3.065492714980124
30
7.170985537182833e-16
 70
     32
  0
VERTEX
  8
MY3DLAYER
10
-4.152707736403522
20
3.0740112584078565
30
6.712200376959e-16
 70
     32
  0
VERTEX
  8
MY3DLAYER
10
-4.092412497679152
20
3.0989863640340136
30
5.985139514475769e-16
 70
     32
  0
VERTEX
  8
MY3DLAYER
10
-4.040635802382514
20
3.1387160196834865
30
5.03935094598649e-16
 70
     32
  0
VERTEX
  8
MY3DLAYER
10
-4.000906146733042
20
3.190492714980124
30
3.939288599444195e-16
 70
     32
  0
VERTEX
  8
MY3DLAYER
10
-3.9759310411068842
20
3.250787953704493
30
2.7599199058267595e-16
 70
     32
  0
VERTEX
  8
MY3DLAYER
10
-3.9674124976791516
20
3.315492714980124
30
1.5816168926052907e-16
 70
     32
  0
VERTEX
  8
MY3DLAYER
10
-3.9759310411068842
20
3.380197476255754
30
4.846789628930397e-17
 70
     32
  0
VERTEX
  8
MY3DLAYER
10
-4.000906146733042
20
3.440492714980124
30
-4.5613937617574636e-17
 70
     32
  0
VERTEX
  8
MY3DLAYER
10
-4.040635802382514
20
3.4922694102767604
30
-1.1767229095693505e-16
 70
     32
  0
VERTEX
  8
MY3DLAYER
10
-4.092412497679152
20
3.5319990659262332
30
-1.6279650603075863e-16
 70
     32
  0
VERTEX
  8
MY3DLAYER
10
-4.152707736403521
20
3.5569741715523904
30
-1.7791144215305582e-16
 70
     32
  0
VERTEX
  8
MY3DLAYER
10
-4.217412497679152
20
3.565492714980124
30
-1.61987041405705e-16
 70
     32
  0
SEQEND
 0
ENDSEC
 0
EOF
