solid MountArm
facet normal -0.2588190451025211 0.9659258262890682 0.0
  outer loop
    vertex 0.21985238063781512 0.12925927171386647 0.75
    vertex 0.25000000000000006 0.1417468245269452 0.0
    vertex 0.21985238063781512 0.12925927171386647 0.0
  endloop
endfacet
facet normal -0.5000000000000004 0.8660254037844384 0.0
  outer loop
    vertex 0.25000000000000006 0.1417468245269452 0.0
    vertex 0.21985238063781512 0.12925927171386647 0.75
    vertex 0.25000000000000006 0.1417468245269452 0.75
  endloop
endfacet
facet normal 0.25881904510252035 0.9659258262890684 0.0
  outer loop
    vertex 0.15514761936218496 0.12925927171386645 0.75
    vertex 0.18750000000000003 0.125 0.0
    vertex 0.15514761936218496 0.12925927171386645 0.0
  endloop
endfacet
facet normal -3.6535550572152305e-16 1.0 0.0
  outer loop
    vertex 0.18750000000000003 0.125 0.0
    vertex 0.15514761936218496 0.12925927171386645 0.75
    vertex 0.18750000000000003 0.125 0.75
  endloop
endfacet
facet normal -3.6535550572152305e-16 1.0 0.0
  outer loop
    vertex 0.18750000000000003 0.125 0.75
    vertex 0.21985238063781512 0.12925927171386647 0.0
    vertex 0.18750000000000003 0.125 0.0
  endloop
endfacet
facet normal -0.2588190451025211 0.9659258262890682 0.0
  outer loop
    vertex 0.21985238063781512 0.12925927171386647 0.0
    vertex 0.18750000000000003 0.125 0.75
    vertex 0.21985238063781512 0.12925927171386647 0.75
  endloop
endfacet
facet normal 1.0 4.0991105519975757e-16 0.0
  outer loop
    vertex 0.0625 0.24999999999999997 0.0
    vertex 0.06675927171386649 0.2176476193621848 0.75
    vertex 0.06675927171386649 0.2176476193621848 0.0
  endloop
endfacet
facet normal 0.9659258262890682 0.2588190451025214 0.0
  outer loop
    vertex 0.06675927171386649 0.2176476193621848 0.75
    vertex 0.0625 0.24999999999999997 0.0
    vertex 0.0625 0.24999999999999997 0.75
  endloop
endfacet
facet normal -0.8 0.5999999999999998 0.0
  outer loop
    vertex 0.05208333333333334 0.40625 0.75
    vertex 0.023598474362558075 0.35832351578300997 0.0
    vertex 0.023598474362558075 0.35832351578300997 0.75
  endloop
endfacet
facet normal -0.909381858447777 0.4159623006067585 0.0
  outer loop
    vertex 0.023598474362558075 0.35832351578300997 0.0
    vertex 0.05208333333333334 0.40625 0.75
    vertex 0.05208333333333334 0.40625 0.0
  endloop
endfacet
facet normal 0.9659258262890682 0.2588190451025214 0.0
  outer loop
    vertex 0.06675927171386649 0.2176476193621848 0.0
    vertex 0.0792468245269452 0.18749999999999994 0.75
    vertex 0.0792468245269452 0.18749999999999994 0.0
  endloop
endfacet
facet normal 0.8660254037844383 0.5000000000000006 0.0
  outer loop
    vertex 0.0792468245269452 0.18749999999999994 0.75
    vertex 0.06675927171386649 0.2176476193621848 0.0
    vertex 0.06675927171386649 0.2176476193621848 0.75
  endloop
endfacet
facet normal -0.4779281063941665 -0.8783989555540729 0.0
  outer loop
    vertex 0.13595622229318577 0.021250271991126807 0.75
    vertex 0.09011699766982667 0.05298511980729853 0.0
    vertex 0.13595622229318577 0.021250271991126807 0.0
  endloop
endfacet
facet normal -0.6539507289478657 -0.7565371399399737 0.0
  outer loop
    vertex 0.09011699766982667 0.05298511980729853 0.0
    vertex 0.13595622229318577 0.021250271991126807 0.75
    vertex 0.09011699766982667 0.05298511980729853 0.75
  endloop
endfacet
facet normal -0.8000000000000002 -0.5999999999999999 0.0
  outer loop
    vertex 0.052083333333333315 0.09374999999999997 0.75
    vertex 0.09011699766982667 0.05298511980729853 0.0
    vertex 0.09011699766982667 0.05298511980729853 0.75
  endloop
endfacet
facet normal -0.6539507289478657 -0.7565371399399737 0.0
  outer loop
    vertex 0.09011699766982667 0.05298511980729853 0.0
    vertex 0.052083333333333315 0.09374999999999997 0.75
    vertex 0.052083333333333315 0.09374999999999997 0.0
  endloop
endfacet
facet normal -0.9093818584477771 -0.41596230060675815 0.0
  outer loop
    vertex 0.023598474362558075 0.14167648421699003 0.75
    vertex 0.052083333333333315 0.09374999999999997 0.0
    vertex 0.052083333333333315 0.09374999999999997 0.75
  endloop
endfacet
facet normal -0.8000000000000002 -0.5999999999999999 0.0
  outer loop
    vertex 0.052083333333333315 0.09374999999999997 0.0
    vertex 0.023598474362558075 0.14167648421699003 0.75
    vertex 0.023598474362558075 0.14167648421699003 0.0
  endloop
endfacet
facet normal -0.4779281063941667 0.878398955554073 0.0
  outer loop
    vertex 0.1359562222931858 0.47874972800887317 0.75
    vertex 0.1875 0.5 0.0
    vertex 0.1359562222931858 0.47874972800887317 0.0
  endloop
endfacet
facet normal -0.38115408462881295 0.9245115271162235 0.0
  outer loop
    vertex 0.1875 0.5 0.0
    vertex 0.1359562222931858 0.47874972800887317 0.75
    vertex 0.1875 0.5 0.75
  endloop
endfacet
facet normal -0.9770828671222764 0.21285927458325973 0.0
  outer loop
    vertex 0.005968003353573781 0.3054321027560572 0.75
    vertex 0.0 0.25 0.0
    vertex 0.0 0.25 0.75
  endloop
endfacet
facet normal -1.0 -5.331558485991176e-17 0.0
  outer loop
    vertex 0.0 0.25 0.0
    vertex 0.005968003353573781 0.3054321027560572 0.75
    vertex 0.005968003353573781 0.3054321027560572 0.0
  endloop
endfacet
facet normal -2.2277774739117265e-16 -1.0 0.0
  outer loop
    vertex 0.1875 0.375 0.75
    vertex 0.1551476193621848 0.3707407282861335 0.0
    vertex 0.1875 0.375 0.0
  endloop
endfacet
facet normal 0.2588190451025213 -0.9659258262890681 0.0
  outer loop
    vertex 0.1551476193621848 0.3707407282861335 0.0
    vertex 0.1875 0.375 0.75
    vertex 0.1551476193621848 0.3707407282861335 0.75
  endloop
endfacet
facet normal 0.2588190451025213 -0.9659258262890681 0.0
  outer loop
    vertex 0.1551476193621848 0.3707407282861335 0.75
    vertex 0.12499999999999994 0.3582531754730548 0.0
    vertex 0.1551476193621848 0.3707407282861335 0.0
  endloop
endfacet
facet normal 0.5000000000000006 -0.8660254037844383 0.0
  outer loop
    vertex 0.12499999999999994 0.3582531754730548 0.0
    vertex 0.1551476193621848 0.3707407282861335 0.75
    vertex 0.12499999999999994 0.3582531754730548 0.75
  endloop
endfacet
facet normal 0.8660254037844383 0.5000000000000006 0.0
  outer loop
    vertex 0.0792468245269452 0.18749999999999994 0.0
    vertex 0.09911165235168161 0.1616116523516815 0.75
    vertex 0.09911165235168161 0.1616116523516815 0.0
  endloop
endfacet
facet normal 0.7071067811865472 0.7071067811865478 0.0
  outer loop
    vertex 0.09911165235168161 0.1616116523516815 0.75
    vertex 0.0792468245269452 0.18749999999999994 0.0
    vertex 0.0792468245269452 0.18749999999999994 0.75
  endloop
endfacet
facet normal -0.9770828671222767 -0.21285927458325968 0.0
  outer loop
    vertex 0.005968003353573781 0.19456789724394286 0.75
    vertex 0.023598474362558075 0.14167648421699003 0.0
    vertex 0.023598474362558075 0.14167648421699003 0.75
  endloop
endfacet
facet normal -0.9093818584477771 -0.41596230060675815 0.0
  outer loop
    vertex 0.023598474362558075 0.14167648421699003 0.0
    vertex 0.005968003353573781 0.19456789724394286 0.75
    vertex 0.005968003353573781 0.19456789724394286 0.0
  endloop
endfacet
facet normal -0.6539507289478655 0.7565371399399737 0.0
  outer loop
    vertex 0.0901169976698267 0.44701488019270147 0.75
    vertex 0.05208333333333334 0.40625 0.0
    vertex 0.05208333333333334 0.40625 0.75
  endloop
endfacet
facet normal -0.8 0.5999999999999998 0.0
  outer loop
    vertex 0.05208333333333334 0.40625 0.0
    vertex 0.0901169976698267 0.44701488019270147 0.75
    vertex 0.0901169976698267 0.44701488019270147 0.0
  endloop
endfacet
facet normal -0.909381858447777 0.4159623006067585 0.0
  outer loop
    vertex 0.023598474362558075 0.35832351578300997 0.75
    vertex 0.005968003353573781 0.3054321027560572 0.0
    vertex 0.005968003353573781 0.3054321027560572 0.75
  endloop
endfacet
facet normal -0.9770828671222764 0.21285927458325973 0.0
  outer loop
    vertex 0.005968003353573781 0.3054321027560572 0.0
    vertex 0.023598474362558075 0.35832351578300997 0.75
    vertex 0.023598474362558075 0.35832351578300997 0.0
  endloop
endfacet
facet normal 0.7071067811865472 0.7071067811865478 0.0
  outer loop
    vertex 0.09911165235168161 0.1616116523516815 0.75
    vertex 0.12500000000000003 0.14174682452694515 0.0
    vertex 0.09911165235168161 0.1616116523516815 0.0
  endloop
endfacet
facet normal 0.4999999999999997 0.8660254037844389 0.0
  outer loop
    vertex 0.12500000000000003 0.14174682452694515 0.0
    vertex 0.09911165235168161 0.1616116523516815 0.75
    vertex 0.12500000000000003 0.14174682452694515 0.75
  endloop
endfacet
facet normal 0.4999999999999997 0.8660254037844389 0.0
  outer loop
    vertex 0.12500000000000003 0.14174682452694515 0.75
    vertex 0.15514761936218496 0.12925927171386645 0.0
    vertex 0.12500000000000003 0.14174682452694515 0.0
  endloop
endfacet
facet normal 0.25881904510252035 0.9659258262890684 0.0
  outer loop
    vertex 0.15514761936218496 0.12925927171386645 0.0
    vertex 0.12500000000000003 0.14174682452694515 0.75
    vertex 0.15514761936218496 0.12925927171386645 0.75
  endloop
endfacet
facet normal -1.0 -5.331558485991176e-17 0.0
  outer loop
    vertex 0.0 0.25 0.75
    vertex 0.005968003353573781 0.19456789724394286 0.0
    vertex 0.005968003353573781 0.19456789724394286 0.75
  endloop
endfacet
facet normal -0.9770828671222767 -0.21285927458325968 0.0
  outer loop
    vertex 0.005968003353573781 0.19456789724394286 0.0
    vertex 0.0 0.25 0.75
    vertex 0.0 0.25 0.0
  endloop
endfacet
facet normal -0.6539507289478655 0.7565371399399737 0.0
  outer loop
    vertex 0.0901169976698267 0.44701488019270147 0.75
    vertex 0.1359562222931858 0.47874972800887317 0.0
    vertex 0.0901169976698267 0.44701488019270147 0.0
  endloop
endfacet
facet normal -0.4779281063941667 0.878398955554073 0.0
  outer loop
    vertex 0.1359562222931858 0.47874972800887317 0.0
    vertex 0.0901169976698267 0.44701488019270147 0.75
    vertex 0.1359562222931858 0.47874972800887317 0.75
  endloop
endfacet
facet normal 0.0 0.0 1.0
  outer loop
    vertex 0.005968003353573781 0.19456789724394286 0.75
    vertex 0.005968003353573781 0.3054321027560572 0.75
    vertex 0.0 0.25 0.75
  endloop
endfacet
facet normal 0.0 0.0 1.0
  outer loop
    vertex 0.005968003353573781 0.3054321027560572 0.75
    vertex 0.005968003353573781 0.19456789724394286 0.75
    vertex 0.023598474362558075 0.14167648421699003 0.75
  endloop
endfacet
facet normal 0.0 0.0 1.0
  outer loop
    vertex 0.005968003353573781 0.3054321027560572 0.75
    vertex 0.023598474362558075 0.14167648421699003 0.75
    vertex 0.023598474362558075 0.35832351578300997 0.75
  endloop
endfacet
facet normal 0.0 0.0 1.0
  outer loop
    vertex 0.023598474362558075 0.35832351578300997 0.75
    vertex 0.023598474362558075 0.14167648421699003 0.75
    vertex 0.052083333333333315 0.09374999999999997 0.75
  endloop
endfacet
facet normal 0.0 0.0 1.0
  outer loop
    vertex 0.023598474362558075 0.35832351578300997 0.75
    vertex 0.052083333333333315 0.09374999999999997 0.75
    vertex 0.05208333333333334 0.40625 0.75
  endloop
endfacet
facet normal 0.0 0.0 1.0
  outer loop
    vertex 0.05208333333333334 0.40625 0.75
    vertex 0.052083333333333315 0.09374999999999997 0.75
    vertex 0.0625 0.24999999999999997 0.75
  endloop
endfacet
facet normal 0.0 0.0 1.0
  outer loop
    vertex 0.0625 0.24999999999999997 0.75
    vertex 0.052083333333333315 0.09374999999999997 0.75
    vertex 0.06675927171386649 0.2176476193621848 0.75
  endloop
endfacet
facet normal 0.0 0.0 1.0
  outer loop
    vertex 0.06675927171386649 0.2176476193621848 0.75
    vertex 0.052083333333333315 0.09374999999999997 0.75
    vertex 0.09011699766982667 0.05298511980729853 0.75
  endloop
endfacet
facet normal 0.0 0.0 1.0
  outer loop
    vertex 0.06675927171386649 0.2176476193621848 0.75
    vertex 0.09011699766982667 0.05298511980729853 0.75
    vertex 0.0792468245269452 0.18749999999999994 0.75
  endloop
endfacet
facet normal 0.0 0.0 1.0
  outer loop
    vertex 0.0792468245269452 0.18749999999999994 0.75
    vertex 0.09011699766982667 0.05298511980729853 0.75
    vertex 0.09911165235168161 0.1616116523516815 0.75
  endloop
endfacet
facet normal 0.0 0.0 1.0
  outer loop
    vertex 0.09911165235168161 0.1616116523516815 0.75
    vertex 0.09011699766982667 0.05298511980729853 0.75
    vertex 0.13595622229318577 0.021250271991126807 0.75
  endloop
endfacet
facet normal 0.0 0.0 1.0
  outer loop
    vertex 0.09911165235168161 0.1616116523516815 0.75
    vertex 0.13595622229318577 0.021250271991126807 0.75
    vertex 0.12500000000000003 0.14174682452694515 0.75
  endloop
endfacet
facet normal 0.0 0.0 1.0
  outer loop
    vertex 0.12500000000000003 0.14174682452694515 0.75
    vertex 0.13595622229318577 0.021250271991126807 0.75
    vertex 0.15514761936218496 0.12925927171386645 0.75
  endloop
endfacet
facet normal 0.0 0.0 1.0
  outer loop
    vertex 0.15514761936218496 0.12925927171386645 0.75
    vertex 0.13595622229318577 0.021250271991126807 0.75
    vertex 0.1875 0.0 0.75
  endloop
endfacet
facet normal 0.0 0.0 1.0
  outer loop
    vertex 0.15514761936218496 0.12925927171386645 0.75
    vertex 0.1875 0.0 0.75
    vertex 0.18750000000000003 0.125 0.75
  endloop
endfacet
facet normal 0.0 0.0 1.0
  outer loop
    vertex 0.18750000000000003 0.125 0.75
    vertex 0.1875 0.0 0.75
    vertex 7.5 0.0 0.75
  endloop
endfacet
facet normal 0.0 0.0 1.0
  outer loop
    vertex 0.18750000000000003 0.125 0.75
    vertex 7.5 0.0 0.75
    vertex 0.21985238063781512 0.12925927171386647 0.75
  endloop
endfacet
facet normal 0.0 0.0 1.0
  outer loop
    vertex 0.21985238063781512 0.12925927171386647 0.75
    vertex 7.5 0.0 0.75
    vertex 0.25000000000000006 0.1417468245269452 0.75
  endloop
endfacet
facet normal 0.0 0.0 1.0
  outer loop
    vertex 0.25000000000000006 0.1417468245269452 0.75
    vertex 7.5 0.0 0.75
    vertex 0.27588834764831843 0.16161165235168157 0.75
  endloop
endfacet
facet normal 0.0 0.0 1.0
  outer loop
    vertex 0.27588834764831843 0.16161165235168157 0.75
    vertex 7.5 0.0 0.75
    vertex 0.29575317547305485 0.18750000000000003 0.75
  endloop
endfacet
facet normal 0.0 0.0 1.0
  outer loop
    vertex 0.29575317547305485 0.18750000000000003 0.75
    vertex 7.5 0.0 0.75
    vertex 0.3082407282861335 0.2176476193621849 0.75
  endloop
endfacet
facet normal 0.0 0.0 1.0
  outer loop
    vertex 0.3082407282861335 0.2176476193621849 0.75
    vertex 7.5 0.0 0.75
    vertex 0.3125 0.25 0.75
  endloop
endfacet
facet normal 0.0 0.0 1.0
  outer loop
    vertex 0.05208333333333334 0.40625 0.75
    vertex 0.06675927171386645 0.28235238063781504 0.75
    vertex 0.0901169976698267 0.44701488019270147 0.75
  endloop
endfacet
facet normal 0.0 0.0 1.0
  outer loop
    vertex 0.06675927171386645 0.28235238063781504 0.75
    vertex 0.05208333333333334 0.40625 0.75
    vertex 0.0625 0.24999999999999997 0.75
  endloop
endfacet
facet normal 0.0 0.0 1.0
  outer loop
    vertex 0.0901169976698267 0.44701488019270147 0.75
    vertex 0.06675927171386645 0.28235238063781504 0.75
    vertex 0.07924682452694512 0.3124999999999999 0.75
  endloop
endfacet
facet normal 0.0 0.0 1.0
  outer loop
    vertex 0.0901169976698267 0.44701488019270147 0.75
    vertex 0.07924682452694512 0.3124999999999999 0.75
    vertex 0.09911165235168154 0.33838834764831843 0.75
  endloop
endfacet
facet normal 0.0 0.0 1.0
  outer loop
    vertex 0.0901169976698267 0.44701488019270147 0.75
    vertex 0.09911165235168154 0.33838834764831843 0.75
    vertex 0.1359562222931858 0.47874972800887317 0.75
  endloop
endfacet
facet normal 0.0 0.0 1.0
  outer loop
    vertex 0.1359562222931858 0.47874972800887317 0.75
    vertex 0.09911165235168154 0.33838834764831843 0.75
    vertex 0.12499999999999994 0.3582531754730548 0.75
  endloop
endfacet
facet normal 0.0 0.0 1.0
  outer loop
    vertex 0.1359562222931858 0.47874972800887317 0.75
    vertex 0.12499999999999994 0.3582531754730548 0.75
    vertex 0.1551476193621848 0.3707407282861335 0.75
  endloop
endfacet
facet normal 0.0 0.0 1.0
  outer loop
    vertex 0.1359562222931858 0.47874972800887317 0.75
    vertex 0.1551476193621848 0.3707407282861335 0.75
    vertex 0.1875 0.5 0.75
  endloop
endfacet
facet normal 0.0 0.0 1.0
  outer loop
    vertex 0.1875 0.5 0.75
    vertex 0.1551476193621848 0.3707407282861335 0.75
    vertex 0.1875 0.375 0.75
  endloop
endfacet
facet normal 0.0 0.0 1.0
  outer loop
    vertex 0.1875 0.5 0.75
    vertex 0.1875 0.375 0.75
    vertex 0.2198523806378151 0.3707407282861335 0.75
  endloop
endfacet
facet normal 0.0 0.0 1.0
  outer loop
    vertex 0.1875 0.5 0.75
    vertex 0.2198523806378151 0.3707407282861335 0.75
    vertex 7.5 0.5 0.75
  endloop
endfacet
facet normal 0.0 0.0 1.0
  outer loop
    vertex 7.5 0.5 0.75
    vertex 0.2198523806378151 0.3707407282861335 0.75
    vertex 0.25 0.35825317547305485 0.75
  endloop
endfacet
facet normal 0.0 0.0 1.0
  outer loop
    vertex 7.5 0.5 0.75
    vertex 0.25 0.35825317547305485 0.75
    vertex 0.27588834764831843 0.33838834764831843 0.75
  endloop
endfacet
facet normal 0.0 0.0 1.0
  outer loop
    vertex 7.5 0.5 0.75
    vertex 0.27588834764831843 0.33838834764831843 0.75
    vertex 0.2957531754730548 0.3125 0.75
  endloop
endfacet
facet normal 0.0 0.0 1.0
  outer loop
    vertex 7.5 0.5 0.75
    vertex 0.2957531754730548 0.3125 0.75
    vertex 0.3082407282861335 0.2823523806378151 0.75
  endloop
endfacet
facet normal 0.0 0.0 1.0
  outer loop
    vertex 7.5 0.5 0.75
    vertex 0.3082407282861335 0.2823523806378151 0.75
    vertex 0.3125 0.25 0.75
  endloop
endfacet
facet normal 0.0 0.0 1.0
  outer loop
    vertex 7.5 0.5 0.75
    vertex 0.3125 0.25 0.75
    vertex 7.5 0.0 0.75
  endloop
endfacet
facet normal 0.5000000000000006 -0.8660254037844383 0.0
  outer loop
    vertex 0.12499999999999994 0.3582531754730548 0.75
    vertex 0.09911165235168154 0.33838834764831843 0.0
    vertex 0.12499999999999994 0.3582531754730548 0.0
  endloop
endfacet
facet normal 0.707106781186548 -0.7071067811865471 0.0
  outer loop
    vertex 0.09911165235168154 0.33838834764831843 0.0
    vertex 0.12499999999999994 0.3582531754730548 0.75
    vertex 0.09911165235168154 0.33838834764831843 0.75
  endloop
endfacet
facet normal -0.3811540846288123 -0.9245115271162238 -0.0
  outer loop
    vertex 0.1875 0.0 0.75
    vertex 0.13595622229318577 0.021250271991126807 0.0
    vertex 0.1875 0.0 0.0
  endloop
endfacet
facet normal -0.4779281063941665 -0.8783989555540729 0.0
  outer loop
    vertex 0.13595622229318577 0.021250271991126807 0.0
    vertex 0.1875 0.0 0.75
    vertex 0.13595622229318577 0.021250271991126807 0.75
  endloop
endfacet
facet normal -0.2588190451025205 -0.9659258262890684 0.0
  outer loop
    vertex 0.2198523806378151 0.3707407282861335 0.75
    vertex 0.1875 0.375 0.0
    vertex 0.2198523806378151 0.3707407282861335 0.0
  endloop
endfacet
facet normal -2.2277774739117265e-16 -1.0 0.0
  outer loop
    vertex 0.1875 0.375 0.0
    vertex 0.2198523806378151 0.3707407282861335 0.75
    vertex 0.1875 0.375 0.75
  endloop
endfacet
facet normal 0.707106781186548 -0.7071067811865471 0.0
  outer loop
    vertex 0.09911165235168154 0.33838834764831843 0.0
    vertex 0.07924682452694512 0.3124999999999999 0.75
    vertex 0.07924682452694512 0.3124999999999999 0.0
  endloop
endfacet
facet normal 0.8660254037844392 -0.4999999999999994 0.0
  outer loop
    vertex 0.07924682452694512 0.3124999999999999 0.75
    vertex 0.09911165235168154 0.33838834764831843 0.0
    vertex 0.09911165235168154 0.33838834764831843 0.75
  endloop
endfacet
facet normal 0.8660254037844392 -0.4999999999999994 0.0
  outer loop
    vertex 0.07924682452694512 0.3124999999999999 0.0
    vertex 0.06675927171386645 0.28235238063781504 0.75
    vertex 0.06675927171386645 0.28235238063781504 0.0
  endloop
endfacet
facet normal 0.9659258262890683 -0.2588190451025204 0.0
  outer loop
    vertex 0.06675927171386645 0.28235238063781504 0.75
    vertex 0.07924682452694512 0.3124999999999999 0.0
    vertex 0.07924682452694512 0.3124999999999999 0.75
  endloop
endfacet
facet normal 0.9659258262890683 -0.2588190451025204 0.0
  outer loop
    vertex 0.06675927171386645 0.28235238063781504 0.0
    vertex 0.0625 0.24999999999999997 0.75
    vertex 0.0625 0.24999999999999997 0.0
  endloop
endfacet
facet normal 1.0 4.0991105519975757e-16 0.0
  outer loop
    vertex 0.0625 0.24999999999999997 0.75
    vertex 0.06675927171386645 0.28235238063781504 0.0
    vertex 0.06675927171386645 0.28235238063781504 0.75
  endloop
endfacet
facet normal 1.0 0.0 0.0
  outer loop
    vertex 4.5 0.12925927171386647 0.15514761936218488
    vertex 4.5 0.12925927171386647 0.2198523806378151
    vertex 4.5 0.125 0.1875
  endloop
endfacet
facet normal 1.0 0.0 0.0
  outer loop
    vertex 4.5 0.12925927171386647 0.2198523806378151
    vertex 4.5 0.12925927171386647 0.15514761936218488
    vertex 4.5 0.14174682452694518 0.12499999999999999
  endloop
endfacet
facet normal 1.0 0.0 0.0
  outer loop
    vertex 4.5 0.12925927171386647 0.2198523806378151
    vertex 4.5 0.14174682452694518 0.12499999999999999
    vertex 4.5 0.14174682452694515 0.24999999999999997
  endloop
endfacet
facet normal 1.0 0.0 0.0
  outer loop
    vertex 4.5 0.14174682452694515 0.24999999999999997
    vertex 4.5 0.14174682452694518 0.12499999999999999
    vertex 4.5 0.16161165235168157 0.27588834764831843
  endloop
endfacet
facet normal 1.0 0.0 0.0
  outer loop
    vertex 4.5 0.16161165235168157 0.27588834764831843
    vertex 4.5 0.14174682452694518 0.12499999999999999
    vertex 4.5 0.16161165235168157 0.09911165235168155
  endloop
endfacet
facet normal 1.0 0.0 0.0
  outer loop
    vertex 4.5 0.16161165235168157 0.27588834764831843
    vertex 4.5 0.16161165235168157 0.09911165235168155
    vertex 4.5 0.1875 0.07924682452694516
  endloop
endfacet
facet normal 1.0 0.0 0.0
  outer loop
    vertex 4.5 0.16161165235168157 0.27588834764831843
    vertex 4.5 0.1875 0.07924682452694516
    vertex 4.5 0.18749999999999994 0.2957531754730548
  endloop
endfacet
facet normal 1.0 0.0 0.0
  outer loop
    vertex 4.5 0.18749999999999994 0.2957531754730548
    vertex 4.5 0.1875 0.07924682452694516
    vertex 4.5 0.21764761936218488 0.3082407282861335
  endloop
endfacet
facet normal 1.0 0.0 0.0
  outer loop
    vertex 4.5 0.21764761936218488 0.3082407282861335
    vertex 4.5 0.1875 0.07924682452694516
    vertex 4.5 0.2176476193621849 0.06675927171386646
  endloop
endfacet
facet normal 1.0 0.0 0.0
  outer loop
    vertex 4.5 0.21764761936218488 0.3082407282861335
    vertex 4.5 0.2176476193621849 0.06675927171386646
    vertex 4.5 0.24999999999999997 0.3125
  endloop
endfacet
facet normal 1.0 0.0 0.0
  outer loop
    vertex 4.5 0.24999999999999997 0.3125
    vertex 4.5 0.2176476193621849 0.06675927171386646
    vertex 4.5 0.25 0.0625
  endloop
endfacet
facet normal 1.0 0.0 0.0
  outer loop
    vertex 4.5 0.24999999999999997 0.3125
    vertex 4.5 0.25 0.0625
    vertex 4.5 0.28235238063781504 0.3082407282861336
  endloop
endfacet
facet normal 1.0 0.0 0.0
  outer loop
    vertex 4.5 0.28235238063781504 0.3082407282861336
    vertex 4.5 0.25 0.0625
    vertex 4.5 0.2823523806378152 0.06675927171386649
  endloop
endfacet
facet normal 1.0 0.0 0.0
  outer loop
    vertex 4.5 0.28235238063781504 0.3082407282861336
    vertex 4.5 0.2823523806378152 0.06675927171386649
    vertex 4.5 0.31249999999999994 0.29575317547305485
  endloop
endfacet
facet normal 1.0 0.0 0.0
  outer loop
    vertex 4.5 0.31249999999999994 0.29575317547305485
    vertex 4.5 0.2823523806378152 0.06675927171386649
    vertex 4.5 0.31250000000000006 0.0792468245269452
  endloop
endfacet
facet normal 1.0 0.0 0.0
  outer loop
    vertex 4.5 0.31249999999999994 0.29575317547305485
    vertex 4.5 0.31250000000000006 0.0792468245269452
    vertex 4.5 0.3383883476483184 0.2758883476483185
  endloop
endfacet
facet normal 1.0 0.0 0.0
  outer loop
    vertex 4.5 0.3383883476483184 0.2758883476483185
    vertex 4.5 0.31250000000000006 0.0792468245269452
    vertex 4.5 0.3383883476483185 0.09911165235168158
  endloop
endfacet
facet normal 1.0 0.0 0.0
  outer loop
    vertex 4.5 0.3383883476483184 0.2758883476483185
    vertex 4.5 0.3383883476483185 0.09911165235168158
    vertex 4.5 0.3582531754730548 0.25000000000000006
  endloop
endfacet
facet normal 1.0 0.0 0.0
  outer loop
    vertex 4.5 0.3582531754730548 0.25000000000000006
    vertex 4.5 0.3383883476483185 0.09911165235168158
    vertex 4.5 0.3582531754730549 0.12500000000000008
  endloop
endfacet
facet normal 1.0 0.0 0.0
  outer loop
    vertex 4.5 0.3582531754730548 0.25000000000000006
    vertex 4.5 0.3582531754730549 0.12500000000000008
    vertex 4.5 0.3707407282861335 0.2198523806378152
  endloop
endfacet
facet normal 1.0 0.0 0.0
  outer loop
    vertex 4.5 0.3707407282861335 0.2198523806378152
    vertex 4.5 0.3582531754730549 0.12500000000000008
    vertex 4.5 0.3707407282861336 0.15514761936218496
  endloop
endfacet
facet normal 1.0 0.0 0.0
  outer loop
    vertex 4.5 0.3707407282861335 0.2198523806378152
    vertex 4.5 0.3707407282861336 0.15514761936218496
    vertex 4.5 0.375 0.18750000000000003
  endloop
endfacet
facet normal 0.0 1.0 0.0
  outer loop
    vertex 0.1875 0.5 0.75
    vertex 7.5 0.5 0.0
    vertex 0.1875 0.5 0.0
  endloop
endfacet
facet normal 0.0 1.0 0.0
  outer loop
    vertex 7.5 0.5 0.0
    vertex 0.1875 0.5 0.75
    vertex 7.5 0.5 0.75
  endloop
endfacet
facet normal -0.8660254037844387 -0.5000000000000001 0.0
  outer loop
    vertex 0.2957531754730548 0.3125 0.75
    vertex 0.3082407282861335 0.2823523806378151 0.0
    vertex 0.3082407282861335 0.2823523806378151 0.75
  endloop
endfacet
facet normal -0.9659258262890682 -0.2588190451025212 0.0
  outer loop
    vertex 0.3082407282861335 0.2823523806378151 0.0
    vertex 0.2957531754730548 0.3125 0.75
    vertex 0.2957531754730548 0.3125 0.0
  endloop
endfacet
facet normal 0.0 0.2588190451025211 -0.9659258262890682
  outer loop
    vertex 7.5 0.21764761936218488 0.3082407282861335
    vertex 4.5 0.18749999999999994 0.2957531754730548
    vertex 4.5 0.21764761936218488 0.3082407282861335
  endloop
endfacet
facet normal 0.0 0.5000000000000004 -0.8660254037844384
  outer loop
    vertex 4.5 0.18749999999999994 0.2957531754730548
    vertex 7.5 0.21764761936218488 0.3082407282861335
    vertex 7.5 0.18749999999999994 0.2957531754730548
  endloop
endfacet
facet normal 1.0 0.0 0.0
  outer loop
    vertex 7.5 0.0 0.0
    vertex 7.5 0.12925927171386647 0.15514761936218488
    vertex 7.5 0.0 0.75
  endloop
endfacet
facet normal 1.0 0.0 0.0
  outer loop
    vertex 7.5 0.12925927171386647 0.15514761936218488
    vertex 7.5 0.0 0.0
    vertex 7.5 0.14174682452694518 0.12499999999999999
  endloop
endfacet
facet normal 1.0 0.0 0.0
  outer loop
    vertex 7.5 0.14174682452694518 0.12499999999999999
    vertex 7.5 0.0 0.0
    vertex 7.5 0.16161165235168157 0.09911165235168155
  endloop
endfacet
facet normal 1.0 0.0 0.0
  outer loop
    vertex 7.5 0.16161165235168157 0.09911165235168155
    vertex 7.5 0.0 0.0
    vertex 7.5 0.1875 0.07924682452694516
  endloop
endfacet
facet normal 1.0 0.0 0.0
  outer loop
    vertex 7.5 0.1875 0.07924682452694516
    vertex 7.5 0.0 0.0
    vertex 7.5 0.2176476193621849 0.06675927171386646
  endloop
endfacet
facet normal 1.0 0.0 0.0
  outer loop
    vertex 7.5 0.2176476193621849 0.06675927171386646
    vertex 7.5 0.0 0.0
    vertex 7.5 0.5 0.0
  endloop
endfacet
facet normal 1.0 0.0 0.0
  outer loop
    vertex 7.5 0.0 0.75
    vertex 7.5 0.12925927171386647 0.15514761936218488
    vertex 7.5 0.125 0.1875
  endloop
endfacet
facet normal 1.0 0.0 0.0
  outer loop
    vertex 7.5 0.2176476193621849 0.06675927171386646
    vertex 7.5 0.5 0.0
    vertex 7.5 0.25 0.0625
  endloop
endfacet
facet normal 1.0 0.0 0.0
  outer loop
    vertex 7.5 0.25 0.0625
    vertex 7.5 0.5 0.0
    vertex 7.5 0.2823523806378152 0.06675927171386649
  endloop
endfacet
facet normal 1.0 0.0 0.0
  outer loop
    vertex 7.5 0.2823523806378152 0.06675927171386649
    vertex 7.5 0.5 0.0
    vertex 7.5 0.31250000000000006 0.0792468245269452
  endloop
endfacet
facet normal 1.0 0.0 0.0
  outer loop
    vertex 7.5 0.31250000000000006 0.0792468245269452
    vertex 7.5 0.5 0.0
    vertex 7.5 0.3383883476483185 0.09911165235168158
  endloop
endfacet
facet normal 1.0 0.0 0.0
  outer loop
    vertex 7.5 0.3383883476483185 0.09911165235168158
    vertex 7.5 0.5 0.0
    vertex 7.5 0.3582531754730549 0.12500000000000008
  endloop
endfacet
facet normal 1.0 0.0 0.0
  outer loop
    vertex 7.5 0.3582531754730549 0.12500000000000008
    vertex 7.5 0.5 0.0
    vertex 7.5 0.3707407282861336 0.15514761936218496
  endloop
endfacet
facet normal 1.0 0.0 0.0
  outer loop
    vertex 7.5 0.3707407282861336 0.15514761936218496
    vertex 7.5 0.5 0.0
    vertex 7.5 0.375 0.18750000000000003
  endloop
endfacet
facet normal 1.0 0.0 0.0
  outer loop
    vertex 7.5 0.375 0.18750000000000003
    vertex 7.5 0.5 0.0
    vertex 7.5 0.375 0.5625
  endloop
endfacet
facet normal 1.0 0.0 0.0
  outer loop
    vertex 7.5 0.0 0.75
    vertex 7.5 0.21764761936218488 0.6832407282861335
    vertex 7.5 0.5 0.75
  endloop
endfacet
facet normal 1.0 0.0 0.0
  outer loop
    vertex 7.5 0.21764761936218488 0.6832407282861335
    vertex 7.5 0.0 0.75
    vertex 7.5 0.18749999999999994 0.6707531754730548
  endloop
endfacet
facet normal 1.0 0.0 0.0
  outer loop
    vertex 7.5 0.18749999999999994 0.6707531754730548
    vertex 7.5 0.0 0.75
    vertex 7.5 0.16161165235168157 0.6508883476483185
  endloop
endfacet
facet normal 1.0 0.0 0.0
  outer loop
    vertex 7.5 0.16161165235168157 0.6508883476483185
    vertex 7.5 0.0 0.75
    vertex 7.5 0.14174682452694515 0.625
  endloop
endfacet
facet normal 1.0 0.0 0.0
  outer loop
    vertex 7.5 0.14174682452694515 0.625
    vertex 7.5 0.0 0.75
    vertex 7.5 0.12925927171386647 0.5948523806378151
  endloop
endfacet
facet normal 1.0 0.0 0.0
  outer loop
    vertex 7.5 0.12925927171386647 0.5948523806378151
    vertex 7.5 0.0 0.75
    vertex 7.5 0.125 0.5625
  endloop
endfacet
facet normal 1.0 0.0 0.0
  outer loop
    vertex 7.5 0.125 0.5625
    vertex 7.5 0.0 0.75
    vertex 7.5 0.125 0.1875
  endloop
endfacet
facet normal 1.0 0.0 0.0
  outer loop
    vertex 7.5 0.5 0.75
    vertex 7.5 0.21764761936218488 0.6832407282861335
    vertex 7.5 0.24999999999999997 0.6875
  endloop
endfacet
facet normal 1.0 0.0 0.0
  outer loop
    vertex 7.5 0.5 0.75
    vertex 7.5 0.24999999999999997 0.6875
    vertex 7.5 0.28235238063781504 0.6832407282861336
  endloop
endfacet
facet normal 1.0 0.0 0.0
  outer loop
    vertex 7.5 0.5 0.75
    vertex 7.5 0.28235238063781504 0.6832407282861336
    vertex 7.5 0.31249999999999994 0.6707531754730549
  endloop
endfacet
facet normal 1.0 0.0 0.0
  outer loop
    vertex 7.5 0.5 0.75
    vertex 7.5 0.31249999999999994 0.6707531754730549
    vertex 7.5 0.3383883476483184 0.6508883476483185
  endloop
endfacet
facet normal 1.0 0.0 0.0
  outer loop
    vertex 7.5 0.5 0.75
    vertex 7.5 0.3383883476483184 0.6508883476483185
    vertex 7.5 0.3582531754730548 0.625
  endloop
endfacet
facet normal 1.0 0.0 0.0
  outer loop
    vertex 7.5 0.5 0.75
    vertex 7.5 0.3582531754730548 0.625
    vertex 7.5 0.3707407282861335 0.5948523806378152
  endloop
endfacet
facet normal 1.0 0.0 0.0
  outer loop
    vertex 7.5 0.5 0.75
    vertex 7.5 0.3707407282861335 0.5948523806378152
    vertex 7.5 0.375 0.5625
  endloop
endfacet
facet normal 1.0 0.0 0.0
  outer loop
    vertex 7.5 0.5 0.75
    vertex 7.5 0.375 0.5625
    vertex 7.5 0.5 0.0
  endloop
endfacet
facet normal 1.0 0.0 0.0
  outer loop
    vertex 7.5 0.12925927171386647 0.2198523806378151
    vertex 7.5 0.125 0.5625
    vertex 7.5 0.125 0.1875
  endloop
endfacet
facet normal 1.0 0.0 0.0
  outer loop
    vertex 7.5 0.125 0.5625
    vertex 7.5 0.12925927171386647 0.2198523806378151
    vertex 7.5 0.12925927171386647 0.5301476193621849
  endloop
endfacet
facet normal 1.0 0.0 0.0
  outer loop
    vertex 7.5 0.12925927171386647 0.5301476193621849
    vertex 7.5 0.12925927171386647 0.2198523806378151
    vertex 7.5 0.14174682452694515 0.24999999999999997
  endloop
endfacet
facet normal 1.0 0.0 0.0
  outer loop
    vertex 7.5 0.12925927171386647 0.5301476193621849
    vertex 7.5 0.14174682452694515 0.24999999999999997
    vertex 7.5 0.14174682452694518 0.5
  endloop
endfacet
facet normal 1.0 0.0 0.0
  outer loop
    vertex 7.5 0.14174682452694518 0.5
    vertex 7.5 0.14174682452694515 0.24999999999999997
    vertex 7.5 0.16161165235168157 0.27588834764831843
  endloop
endfacet
facet normal 1.0 0.0 0.0
  outer loop
    vertex 7.5 0.14174682452694518 0.5
    vertex 7.5 0.16161165235168157 0.27588834764831843
    vertex 7.5 0.16161165235168157 0.47411165235168157
  endloop
endfacet
facet normal 1.0 0.0 0.0
  outer loop
    vertex 7.5 0.16161165235168157 0.47411165235168157
    vertex 7.5 0.16161165235168157 0.27588834764831843
    vertex 7.5 0.18749999999999994 0.2957531754730548
  endloop
endfacet
facet normal 1.0 0.0 0.0
  outer loop
    vertex 7.5 0.16161165235168157 0.47411165235168157
    vertex 7.5 0.18749999999999994 0.2957531754730548
    vertex 7.5 0.1875 0.45424682452694515
  endloop
endfacet
facet normal 1.0 0.0 0.0
  outer loop
    vertex 7.5 0.1875 0.45424682452694515
    vertex 7.5 0.18749999999999994 0.2957531754730548
    vertex 7.5 0.21764761936218488 0.3082407282861335
  endloop
endfacet
facet normal 1.0 0.0 0.0
  outer loop
    vertex 7.5 0.1875 0.45424682452694515
    vertex 7.5 0.21764761936218488 0.3082407282861335
    vertex 7.5 0.2176476193621849 0.4417592717138665
  endloop
endfacet
facet normal 1.0 0.0 0.0
  outer loop
    vertex 7.5 0.2176476193621849 0.4417592717138665
    vertex 7.5 0.21764761936218488 0.3082407282861335
    vertex 7.5 0.24999999999999997 0.3125
  endloop
endfacet
facet normal 1.0 0.0 0.0
  outer loop
    vertex 7.5 0.2176476193621849 0.4417592717138665
    vertex 7.5 0.24999999999999997 0.3125
    vertex 7.5 0.25 0.4375
  endloop
endfacet
facet normal 1.0 0.0 0.0
  outer loop
    vertex 7.5 0.25 0.4375
    vertex 7.5 0.24999999999999997 0.3125
    vertex 7.5 0.28235238063781504 0.3082407282861336
  endloop
endfacet
facet normal 1.0 0.0 0.0
  outer loop
    vertex 7.5 0.25 0.4375
    vertex 7.5 0.28235238063781504 0.3082407282861336
    vertex 7.5 0.2823523806378152 0.4417592717138665
  endloop
endfacet
facet normal 1.0 0.0 0.0
  outer loop
    vertex 7.5 0.2823523806378152 0.4417592717138665
    vertex 7.5 0.28235238063781504 0.3082407282861336
    vertex 7.5 0.31249999999999994 0.29575317547305485
  endloop
endfacet
facet normal 1.0 0.0 0.0
  outer loop
    vertex 7.5 0.2823523806378152 0.4417592717138665
    vertex 7.5 0.31249999999999994 0.29575317547305485
    vertex 7.5 0.31250000000000006 0.4542468245269452
  endloop
endfacet
facet normal 1.0 0.0 0.0
  outer loop
    vertex 7.5 0.31250000000000006 0.4542468245269452
    vertex 7.5 0.31249999999999994 0.29575317547305485
    vertex 7.5 0.3383883476483184 0.2758883476483185
  endloop
endfacet
facet normal 1.0 0.0 0.0
  outer loop
    vertex 7.5 0.31250000000000006 0.4542468245269452
    vertex 7.5 0.3383883476483184 0.2758883476483185
    vertex 7.5 0.3383883476483185 0.47411165235168157
  endloop
endfacet
facet normal 1.0 0.0 0.0
  outer loop
    vertex 7.5 0.3383883476483185 0.47411165235168157
    vertex 7.5 0.3383883476483184 0.2758883476483185
    vertex 7.5 0.3582531754730548 0.25000000000000006
  endloop
endfacet
facet normal 1.0 0.0 0.0
  outer loop
    vertex 7.5 0.3383883476483185 0.47411165235168157
    vertex 7.5 0.3582531754730548 0.25000000000000006
    vertex 7.5 0.3582531754730549 0.5000000000000001
  endloop
endfacet
facet normal 1.0 0.0 0.0
  outer loop
    vertex 7.5 0.3582531754730549 0.5000000000000001
    vertex 7.5 0.3582531754730548 0.25000000000000006
    vertex 7.5 0.3707407282861335 0.2198523806378152
  endloop
endfacet
facet normal 1.0 0.0 0.0
  outer loop
    vertex 7.5 0.3582531754730549 0.5000000000000001
    vertex 7.5 0.3707407282861335 0.2198523806378152
    vertex 7.5 0.3707407282861336 0.530147619362185
  endloop
endfacet
facet normal 1.0 0.0 0.0
  outer loop
    vertex 7.5 0.3707407282861336 0.530147619362185
    vertex 7.5 0.3707407282861335 0.2198523806378152
    vertex 7.5 0.375 0.18750000000000003
  endloop
endfacet
facet normal 1.0 0.0 0.0
  outer loop
    vertex 7.5 0.3707407282861336 0.530147619362185
    vertex 7.5 0.375 0.18750000000000003
    vertex 7.5 0.375 0.5625
  endloop
endfacet
facet normal 0.0 0.5000000000000004 -0.8660254037844384
  outer loop
    vertex 7.5 0.18749999999999994 0.2957531754730548
    vertex 4.5 0.16161165235168157 0.27588834764831843
    vertex 4.5 0.18749999999999994 0.2957531754730548
  endloop
endfacet
facet normal 0.0 0.7071067811865476 -0.7071067811865475
  outer loop
    vertex 4.5 0.16161165235168157 0.27588834764831843
    vertex 7.5 0.18749999999999994 0.2957531754730548
    vertex 7.5 0.16161165235168157 0.27588834764831843
  endloop
endfacet
facet normal 0.0 0.0 -1.0
  outer loop
    vertex 0.05208333333333334 0.40625 0.0
    vertex 0.06675927171386645 0.28235238063781504 0.0
    vertex 0.0625 0.24999999999999997 0.0
  endloop
endfacet
facet normal 0.0 0.0 -1.0
  outer loop
    vertex 0.06675927171386645 0.28235238063781504 0.0
    vertex 0.05208333333333334 0.40625 0.0
    vertex 0.0901169976698267 0.44701488019270147 0.0
  endloop
endfacet
facet normal 0.0 0.0 -1.0
  outer loop
    vertex 0.06675927171386645 0.28235238063781504 0.0
    vertex 0.0901169976698267 0.44701488019270147 0.0
    vertex 0.07924682452694512 0.3124999999999999 0.0
  endloop
endfacet
facet normal 0.0 0.0 -1.0
  outer loop
    vertex 0.07924682452694512 0.3124999999999999 0.0
    vertex 0.0901169976698267 0.44701488019270147 0.0
    vertex 0.09911165235168154 0.33838834764831843 0.0
  endloop
endfacet
facet normal 0.0 0.0 -1.0
  outer loop
    vertex 0.09911165235168154 0.33838834764831843 0.0
    vertex 0.0901169976698267 0.44701488019270147 0.0
    vertex 0.1359562222931858 0.47874972800887317 0.0
  endloop
endfacet
facet normal 0.0 0.0 -1.0
  outer loop
    vertex 0.09911165235168154 0.33838834764831843 0.0
    vertex 0.1359562222931858 0.47874972800887317 0.0
    vertex 0.12499999999999994 0.3582531754730548 0.0
  endloop
endfacet
facet normal 0.0 0.0 -1.0
  outer loop
    vertex 0.12499999999999994 0.3582531754730548 0.0
    vertex 0.1359562222931858 0.47874972800887317 0.0
    vertex 0.1551476193621848 0.3707407282861335 0.0
  endloop
endfacet
facet normal 0.0 0.0 -1.0
  outer loop
    vertex 0.1551476193621848 0.3707407282861335 0.0
    vertex 0.1359562222931858 0.47874972800887317 0.0
    vertex 0.1875 0.5 0.0
  endloop
endfacet
facet normal 0.0 0.0 -1.0
  outer loop
    vertex 0.1551476193621848 0.3707407282861335 0.0
    vertex 0.1875 0.5 0.0
    vertex 0.1875 0.375 0.0
  endloop
endfacet
facet normal 0.0 0.0 -1.0
  outer loop
    vertex 0.1875 0.375 0.0
    vertex 0.1875 0.5 0.0
    vertex 7.5 0.5 0.0
  endloop
endfacet
facet normal 0.0 0.0 -1.0
  outer loop
    vertex 0.1875 0.375 0.0
    vertex 7.5 0.5 0.0
    vertex 0.2198523806378151 0.3707407282861335 0.0
  endloop
endfacet
facet normal 0.0 0.0 -1.0
  outer loop
    vertex 0.2198523806378151 0.3707407282861335 0.0
    vertex 7.5 0.5 0.0
    vertex 0.25 0.35825317547305485 0.0
  endloop
endfacet
facet normal 0.0 0.0 -1.0
  outer loop
    vertex 0.25 0.35825317547305485 0.0
    vertex 7.5 0.5 0.0
    vertex 0.27588834764831843 0.33838834764831843 0.0
  endloop
endfacet
facet normal 0.0 0.0 -1.0
  outer loop
    vertex 0.27588834764831843 0.33838834764831843 0.0
    vertex 7.5 0.5 0.0
    vertex 0.2957531754730548 0.3125 0.0
  endloop
endfacet
facet normal 0.0 0.0 -1.0
  outer loop
    vertex 0.2957531754730548 0.3125 0.0
    vertex 7.5 0.5 0.0
    vertex 0.3082407282861335 0.2823523806378151 0.0
  endloop
endfacet
facet normal 0.0 0.0 -1.0
  outer loop
    vertex 0.3082407282861335 0.2823523806378151 0.0
    vertex 7.5 0.5 0.0
    vertex 0.3125 0.25 0.0
  endloop
endfacet
facet normal 0.0 0.0 -1.0
  outer loop
    vertex 0.005968003353573781 0.3054321027560572 0.0
    vertex 0.005968003353573781 0.19456789724394286 0.0
    vertex 0.0 0.25 0.0
  endloop
endfacet
facet normal 0.0 0.0 -1.0
  outer loop
    vertex 0.005968003353573781 0.19456789724394286 0.0
    vertex 0.005968003353573781 0.3054321027560572 0.0
    vertex 0.023598474362558075 0.35832351578300997 0.0
  endloop
endfacet
facet normal 0.0 0.0 -1.0
  outer loop
    vertex 0.005968003353573781 0.19456789724394286 0.0
    vertex 0.023598474362558075 0.35832351578300997 0.0
    vertex 0.023598474362558075 0.14167648421699003 0.0
  endloop
endfacet
facet normal 0.0 0.0 -1.0
  outer loop
    vertex 0.023598474362558075 0.14167648421699003 0.0
    vertex 0.023598474362558075 0.35832351578300997 0.0
    vertex 0.05208333333333334 0.40625 0.0
  endloop
endfacet
facet normal 0.0 0.0 -1.0
  outer loop
    vertex 0.023598474362558075 0.14167648421699003 0.0
    vertex 0.05208333333333334 0.40625 0.0
    vertex 0.052083333333333315 0.09374999999999997 0.0
  endloop
endfacet
facet normal 0.0 0.0 -1.0
  outer loop
    vertex 0.052083333333333315 0.09374999999999997 0.0
    vertex 0.05208333333333334 0.40625 0.0
    vertex 0.0625 0.24999999999999997 0.0
  endloop
endfacet
facet normal 0.0 0.0 -1.0
  outer loop
    vertex 0.052083333333333315 0.09374999999999997 0.0
    vertex 0.0625 0.24999999999999997 0.0
    vertex 0.06675927171386649 0.2176476193621848 0.0
  endloop
endfacet
facet normal 0.0 0.0 -1.0
  outer loop
    vertex 0.052083333333333315 0.09374999999999997 0.0
    vertex 0.06675927171386649 0.2176476193621848 0.0
    vertex 0.09011699766982667 0.05298511980729853 0.0
  endloop
endfacet
facet normal 0.0 0.0 -1.0
  outer loop
    vertex 0.09011699766982667 0.05298511980729853 0.0
    vertex 0.06675927171386649 0.2176476193621848 0.0
    vertex 0.0792468245269452 0.18749999999999994 0.0
  endloop
endfacet
facet normal 0.0 0.0 -1.0
  outer loop
    vertex 0.09011699766982667 0.05298511980729853 0.0
    vertex 0.0792468245269452 0.18749999999999994 0.0
    vertex 0.09911165235168161 0.1616116523516815 0.0
  endloop
endfacet
facet normal 0.0 0.0 -1.0
  outer loop
    vertex 0.09011699766982667 0.05298511980729853 0.0
    vertex 0.09911165235168161 0.1616116523516815 0.0
    vertex 0.13595622229318577 0.021250271991126807 0.0
  endloop
endfacet
facet normal 0.0 0.0 -1.0
  outer loop
    vertex 0.13595622229318577 0.021250271991126807 0.0
    vertex 0.09911165235168161 0.1616116523516815 0.0
    vertex 0.12500000000000003 0.14174682452694515 0.0
  endloop
endfacet
facet normal 0.0 0.0 -1.0
  outer loop
    vertex 0.13595622229318577 0.021250271991126807 0.0
    vertex 0.12500000000000003 0.14174682452694515 0.0
    vertex 0.15514761936218496 0.12925927171386645 0.0
  endloop
endfacet
facet normal 0.0 0.0 -1.0
  outer loop
    vertex 0.13595622229318577 0.021250271991126807 0.0
    vertex 0.15514761936218496 0.12925927171386645 0.0
    vertex 0.1875 0.0 0.0
  endloop
endfacet
facet normal 0.0 0.0 -1.0
  outer loop
    vertex 0.1875 0.0 0.0
    vertex 0.15514761936218496 0.12925927171386645 0.0
    vertex 0.18750000000000003 0.125 0.0
  endloop
endfacet
facet normal 0.0 0.0 -1.0
  outer loop
    vertex 0.1875 0.0 0.0
    vertex 0.18750000000000003 0.125 0.0
    vertex 7.5 0.0 0.0
  endloop
endfacet
facet normal 0.0 0.0 -1.0
  outer loop
    vertex 7.5 0.0 0.0
    vertex 0.18750000000000003 0.125 0.0
    vertex 0.21985238063781512 0.12925927171386647 0.0
  endloop
endfacet
facet normal 0.0 0.0 -1.0
  outer loop
    vertex 7.5 0.0 0.0
    vertex 0.21985238063781512 0.12925927171386647 0.0
    vertex 0.25000000000000006 0.1417468245269452 0.0
  endloop
endfacet
facet normal 0.0 0.0 -1.0
  outer loop
    vertex 7.5 0.0 0.0
    vertex 0.25000000000000006 0.1417468245269452 0.0
    vertex 0.27588834764831843 0.16161165235168157 0.0
  endloop
endfacet
facet normal 0.0 0.0 -1.0
  outer loop
    vertex 7.5 0.0 0.0
    vertex 0.27588834764831843 0.16161165235168157 0.0
    vertex 0.29575317547305485 0.18750000000000003 0.0
  endloop
endfacet
facet normal 0.0 0.0 -1.0
  outer loop
    vertex 7.5 0.0 0.0
    vertex 0.29575317547305485 0.18750000000000003 0.0
    vertex 0.3082407282861335 0.2176476193621849 0.0
  endloop
endfacet
facet normal 0.0 0.0 -1.0
  outer loop
    vertex 7.5 0.0 0.0
    vertex 0.3082407282861335 0.2176476193621849 0.0
    vertex 0.3125 0.25 0.0
  endloop
endfacet
facet normal 0.0 0.0 -1.0
  outer loop
    vertex 7.5 0.0 0.0
    vertex 0.3125 0.25 0.0
    vertex 7.5 0.5 0.0
  endloop
endfacet
facet normal 0.0 7.841776708169276e-16 -1.0
  outer loop
    vertex 7.5 0.24999999999999997 0.3125
    vertex 4.5 0.21764761936218488 0.3082407282861335
    vertex 4.5 0.24999999999999997 0.3125
  endloop
endfacet
facet normal 0.0 0.2588190451025211 -0.9659258262890682
  outer loop
    vertex 4.5 0.21764761936218488 0.3082407282861335
    vertex 7.5 0.24999999999999997 0.3125
    vertex 7.5 0.21764761936218488 0.3082407282861335
  endloop
endfacet
facet normal -0.707106781186548 -0.707106781186547 0.0
  outer loop
    vertex 0.27588834764831843 0.33838834764831843 0.75
    vertex 0.25 0.35825317547305485 0.0
    vertex 0.27588834764831843 0.33838834764831843 0.0
  endloop
endfacet
facet normal -0.5 -0.8660254037844387 0.0
  outer loop
    vertex 0.25 0.35825317547305485 0.0
    vertex 0.27588834764831843 0.33838834764831843 0.75
    vertex 0.25 0.35825317547305485 0.75
  endloop
endfacet
facet normal 0.0 -0.707106781186547 -0.707106781186548
  outer loop
    vertex 7.5 0.3383883476483184 0.2758883476483185
    vertex 4.5 0.31249999999999994 0.29575317547305485
    vertex 4.5 0.3383883476483184 0.2758883476483185
  endloop
endfacet
facet normal 0.0 -0.5000000000000001 -0.8660254037844387
  outer loop
    vertex 4.5 0.31249999999999994 0.29575317547305485
    vertex 7.5 0.3383883476483184 0.2758883476483185
    vertex 7.5 0.31249999999999994 0.29575317547305485
  endloop
endfacet
facet normal -1.0 0.0 0.0
  outer loop
    vertex 0.3125 0.25 0.75
    vertex 0.3082407282861335 0.2176476193621849 0.0
    vertex 0.3082407282861335 0.2176476193621849 0.75
  endloop
endfacet
facet normal -0.9659258262890684 0.25881904510252063 0.0
  outer loop
    vertex 0.3082407282861335 0.2176476193621849 0.0
    vertex 0.3125 0.25 0.75
    vertex 0.3125 0.25 0.0
  endloop
endfacet
facet normal 0.0 -0.25881904510252046 -0.9659258262890684
  outer loop
    vertex 7.5 0.28235238063781504 0.3082407282861336
    vertex 4.5 0.24999999999999997 0.3125
    vertex 4.5 0.28235238063781504 0.3082407282861336
  endloop
endfacet
facet normal 0.0 7.841776708169276e-16 -1.0
  outer loop
    vertex 4.5 0.24999999999999997 0.3125
    vertex 7.5 0.28235238063781504 0.3082407282861336
    vertex 7.5 0.24999999999999997 0.3125
  endloop
endfacet
facet normal 0.0 0.7071067811865476 -0.7071067811865475
  outer loop
    vertex 4.5 0.16161165235168157 0.27588834764831843
    vertex 7.5 0.14174682452694515 0.24999999999999997
    vertex 4.5 0.14174682452694515 0.24999999999999997
  endloop
endfacet
facet normal 0.0 0.8660254037844388 -0.4999999999999999
  outer loop
    vertex 7.5 0.14174682452694515 0.24999999999999997
    vertex 4.5 0.16161165235168157 0.27588834764831843
    vertex 7.5 0.16161165235168157 0.27588834764831843
  endloop
endfacet
facet normal -0.9659258262890684 0.25881904510252063 0.0
  outer loop
    vertex 0.3082407282861335 0.2176476193621849 0.75
    vertex 0.29575317547305485 0.18750000000000003 0.0
    vertex 0.29575317547305485 0.18750000000000003 0.75
  endloop
endfacet
facet normal -0.8660254037844388 0.4999999999999999 0.0
  outer loop
    vertex 0.29575317547305485 0.18750000000000003 0.0
    vertex 0.3082407282861335 0.2176476193621849 0.75
    vertex 0.3082407282861335 0.2176476193621849 0.0
  endloop
endfacet
facet normal 0.0 0.8660254037844388 -0.4999999999999999
  outer loop
    vertex 4.5 0.14174682452694515 0.24999999999999997
    vertex 7.5 0.12925927171386647 0.2198523806378151
    vertex 4.5 0.12925927171386647 0.2198523806378151
  endloop
endfacet
facet normal 0.0 0.9659258262890684 -0.25881904510252063
  outer loop
    vertex 7.5 0.12925927171386647 0.2198523806378151
    vertex 4.5 0.14174682452694515 0.24999999999999997
    vertex 7.5 0.14174682452694515 0.24999999999999997
  endloop
endfacet
facet normal 0.0 1.0 -5.346665937388143e-17
  outer loop
    vertex 4.5 0.125 0.1875
    vertex 7.5 0.12925927171386647 0.15514761936218488
    vertex 4.5 0.12925927171386647 0.15514761936218488
  endloop
endfacet
facet normal 0.0 0.9659258262890682 0.25881904510252085
  outer loop
    vertex 7.5 0.12925927171386647 0.15514761936218488
    vertex 4.5 0.125 0.1875
    vertex 7.5 0.125 0.1875
  endloop
endfacet
facet normal 0.0 0.9659258262890682 0.25881904510252085
  outer loop
    vertex 4.5 0.12925927171386647 0.15514761936218488
    vertex 7.5 0.14174682452694518 0.12499999999999999
    vertex 4.5 0.14174682452694518 0.12499999999999999
  endloop
endfacet
facet normal 0.0 0.8660254037844386 0.5
  outer loop
    vertex 7.5 0.14174682452694518 0.12499999999999999
    vertex 4.5 0.12925927171386647 0.15514761936218488
    vertex 7.5 0.12925927171386647 0.15514761936218488
  endloop
endfacet
facet normal 0.0 0.7071067811865475 0.7071067811865475
  outer loop
    vertex 7.5 0.16161165235168157 0.09911165235168155
    vertex 4.5 0.1875 0.07924682452694516
    vertex 4.5 0.16161165235168157 0.09911165235168155
  endloop
endfacet
facet normal 0.0 0.5 0.8660254037844387
  outer loop
    vertex 4.5 0.1875 0.07924682452694516
    vertex 7.5 0.16161165235168157 0.09911165235168155
    vertex 7.5 0.1875 0.07924682452694516
  endloop
endfacet
facet normal 0.0 0.5 0.8660254037844387
  outer loop
    vertex 7.5 0.1875 0.07924682452694516
    vertex 4.5 0.2176476193621849 0.06675927171386646
    vertex 4.5 0.1875 0.07924682452694516
  endloop
endfacet
facet normal 0.0 0.25881904510252063 0.9659258262890683
  outer loop
    vertex 4.5 0.2176476193621849 0.06675927171386646
    vertex 7.5 0.1875 0.07924682452694516
    vertex 7.5 0.2176476193621849 0.06675927171386646
  endloop
endfacet
facet normal 0.0 -0.707106781186547 -0.707106781186548
  outer loop
    vertex 7.5 0.3383883476483184 0.2758883476483185
    vertex 4.5 0.3582531754730548 0.25000000000000006
    vertex 7.5 0.3582531754730548 0.25000000000000006
  endloop
endfacet
facet normal 0.0 -0.866025403784438 -0.5000000000000009
  outer loop
    vertex 4.5 0.3582531754730548 0.25000000000000006
    vertex 7.5 0.3383883476483184 0.2758883476483185
    vertex 4.5 0.3383883476483184 0.2758883476483185
  endloop
endfacet
facet normal 0.0 0.25881904510252063 0.9659258262890683
  outer loop
    vertex 7.5 0.2176476193621849 0.06675927171386646
    vertex 4.5 0.25 0.0625
    vertex 4.5 0.2176476193621849 0.06675927171386646
  endloop
endfacet
facet normal 0.0 -2.1386663749552573e-16 1.0
  outer loop
    vertex 4.5 0.25 0.0625
    vertex 7.5 0.2176476193621849 0.06675927171386646
    vertex 7.5 0.25 0.0625
  endloop
endfacet
facet normal 0.0 -0.5000000000000001 -0.8660254037844387
  outer loop
    vertex 7.5 0.31249999999999994 0.29575317547305485
    vertex 4.5 0.28235238063781504 0.3082407282861336
    vertex 4.5 0.31249999999999994 0.29575317547305485
  endloop
endfacet
facet normal 0.0 -0.25881904510252046 -0.9659258262890684
  outer loop
    vertex 4.5 0.28235238063781504 0.3082407282861336
    vertex 7.5 0.31249999999999994 0.29575317547305485
    vertex 7.5 0.28235238063781504 0.3082407282861336
  endloop
endfacet
facet normal -0.8660254037844388 0.4999999999999999 0.0
  outer loop
    vertex 0.29575317547305485 0.18750000000000003 0.75
    vertex 0.27588834764831843 0.16161165235168157 0.0
    vertex 0.27588834764831843 0.16161165235168157 0.75
  endloop
endfacet
facet normal -0.7071067811865476 0.7071067811865475 0.0
  outer loop
    vertex 0.27588834764831843 0.16161165235168157 0.0
    vertex 0.29575317547305485 0.18750000000000003 0.75
    vertex 0.29575317547305485 0.18750000000000003 0.0
  endloop
endfacet
facet normal 0.0 0.9659258262890684 -0.25881904510252063
  outer loop
    vertex 4.5 0.12925927171386647 0.2198523806378151
    vertex 7.5 0.125 0.1875
    vertex 4.5 0.125 0.1875
  endloop
endfacet
facet normal 0.0 1.0 -5.346665937388143e-17
  outer loop
    vertex 7.5 0.125 0.1875
    vertex 4.5 0.12925927171386647 0.2198523806378151
    vertex 7.5 0.12925927171386647 0.2198523806378151
  endloop
endfacet
facet normal 0.0 -2.1386663749552573e-16 1.0
  outer loop
    vertex 7.5 0.25 0.0625
    vertex 4.5 0.2823523806378152 0.06675927171386649
    vertex 4.5 0.25 0.0625
  endloop
endfacet
facet normal 0.0 -0.25881904510252135 0.9659258262890682
  outer loop
    vertex 4.5 0.2823523806378152 0.06675927171386649
    vertex 7.5 0.25 0.0625
    vertex 7.5 0.2823523806378152 0.06675927171386649
  endloop
endfacet
facet normal 0.0 -0.5000000000000003 0.8660254037844386
  outer loop
    vertex 7.5 0.31250000000000006 0.0792468245269452
    vertex 4.5 0.3383883476483185 0.09911165235168158
    vertex 4.5 0.31250000000000006 0.0792468245269452
  endloop
endfacet
facet normal 0.0 -0.7071067811865477 0.7071067811865475
  outer loop
    vertex 4.5 0.3383883476483185 0.09911165235168158
    vertex 7.5 0.31250000000000006 0.0792468245269452
    vertex 7.5 0.3383883476483185 0.09911165235168158
  endloop
endfacet
facet normal 0.0 -0.8660254037844389 0.4999999999999996
  outer loop
    vertex 7.5 0.3582531754730549 0.12500000000000008
    vertex 4.5 0.3383883476483185 0.09911165235168158
    vertex 7.5 0.3383883476483185 0.09911165235168158
  endloop
endfacet
facet normal 0.0 -0.7071067811865477 0.7071067811865475
  outer loop
    vertex 4.5 0.3383883476483185 0.09911165235168158
    vertex 7.5 0.3582531754730549 0.12500000000000008
    vertex 4.5 0.3582531754730549 0.12500000000000008
  endloop
endfacet
facet normal 0.0 -0.9659258262890686 0.2588190451025199
  outer loop
    vertex 7.5 0.3707407282861336 0.15514761936218496
    vertex 4.5 0.3582531754730549 0.12500000000000008
    vertex 7.5 0.3582531754730549 0.12500000000000008
  endloop
endfacet
facet normal 0.0 -0.8660254037844389 0.4999999999999996
  outer loop
    vertex 4.5 0.3582531754730549 0.12500000000000008
    vertex 7.5 0.3707407282861336 0.15514761936218496
    vertex 4.5 0.3707407282861336 0.15514761936218496
  endloop
endfacet
facet normal 1.0 0.0 0.0
  outer loop
    vertex 4.5 0.12925927171386647 0.5301476193621849
    vertex 4.5 0.12925927171386647 0.5948523806378151
    vertex 4.5 0.125 0.5625
  endloop
endfacet
facet normal 1.0 0.0 0.0
  outer loop
    vertex 4.5 0.12925927171386647 0.5948523806378151
    vertex 4.5 0.12925927171386647 0.5301476193621849
    vertex 4.5 0.14174682452694518 0.5
  endloop
endfacet
facet normal 1.0 0.0 0.0
  outer loop
    vertex 4.5 0.12925927171386647 0.5948523806378151
    vertex 4.5 0.14174682452694518 0.5
    vertex 4.5 0.14174682452694515 0.625
  endloop
endfacet
facet normal 1.0 0.0 0.0
  outer loop
    vertex 4.5 0.14174682452694515 0.625
    vertex 4.5 0.14174682452694518 0.5
    vertex 4.5 0.16161165235168157 0.6508883476483185
  endloop
endfacet
facet normal 1.0 0.0 0.0
  outer loop
    vertex 4.5 0.16161165235168157 0.6508883476483185
    vertex 4.5 0.14174682452694518 0.5
    vertex 4.5 0.16161165235168157 0.47411165235168157
  endloop
endfacet
facet normal 1.0 0.0 0.0
  outer loop
    vertex 4.5 0.16161165235168157 0.6508883476483185
    vertex 4.5 0.16161165235168157 0.47411165235168157
    vertex 4.5 0.1875 0.45424682452694515
  endloop
endfacet
facet normal 1.0 0.0 0.0
  outer loop
    vertex 4.5 0.16161165235168157 0.6508883476483185
    vertex 4.5 0.1875 0.45424682452694515
    vertex 4.5 0.18749999999999994 0.6707531754730548
  endloop
endfacet
facet normal 1.0 0.0 0.0
  outer loop
    vertex 4.5 0.18749999999999994 0.6707531754730548
    vertex 4.5 0.1875 0.45424682452694515
    vertex 4.5 0.21764761936218488 0.6832407282861335
  endloop
endfacet
facet normal 1.0 0.0 0.0
  outer loop
    vertex 4.5 0.21764761936218488 0.6832407282861335
    vertex 4.5 0.1875 0.45424682452694515
    vertex 4.5 0.2176476193621849 0.4417592717138665
  endloop
endfacet
facet normal 1.0 0.0 0.0
  outer loop
    vertex 4.5 0.21764761936218488 0.6832407282861335
    vertex 4.5 0.2176476193621849 0.4417592717138665
    vertex 4.5 0.24999999999999997 0.6875
  endloop
endfacet
facet normal 1.0 0.0 0.0
  outer loop
    vertex 4.5 0.24999999999999997 0.6875
    vertex 4.5 0.2176476193621849 0.4417592717138665
    vertex 4.5 0.25 0.4375
  endloop
endfacet
facet normal 1.0 0.0 0.0
  outer loop
    vertex 4.5 0.24999999999999997 0.6875
    vertex 4.5 0.25 0.4375
    vertex 4.5 0.28235238063781504 0.6832407282861336
  endloop
endfacet
facet normal 1.0 0.0 0.0
  outer loop
    vertex 4.5 0.28235238063781504 0.6832407282861336
    vertex 4.5 0.25 0.4375
    vertex 4.5 0.2823523806378152 0.4417592717138665
  endloop
endfacet
facet normal 1.0 0.0 0.0
  outer loop
    vertex 4.5 0.28235238063781504 0.6832407282861336
    vertex 4.5 0.2823523806378152 0.4417592717138665
    vertex 4.5 0.31249999999999994 0.6707531754730549
  endloop
endfacet
facet normal 1.0 0.0 0.0
  outer loop
    vertex 4.5 0.31249999999999994 0.6707531754730549
    vertex 4.5 0.2823523806378152 0.4417592717138665
    vertex 4.5 0.31250000000000006 0.4542468245269452
  endloop
endfacet
facet normal 1.0 0.0 0.0
  outer loop
    vertex 4.5 0.31249999999999994 0.6707531754730549
    vertex 4.5 0.31250000000000006 0.4542468245269452
    vertex 4.5 0.3383883476483184 0.6508883476483185
  endloop
endfacet
facet normal 1.0 0.0 0.0
  outer loop
    vertex 4.5 0.3383883476483184 0.6508883476483185
    vertex 4.5 0.31250000000000006 0.4542468245269452
    vertex 4.5 0.3383883476483185 0.47411165235168157
  endloop
endfacet
facet normal 1.0 0.0 0.0
  outer loop
    vertex 4.5 0.3383883476483184 0.6508883476483185
    vertex 4.5 0.3383883476483185 0.47411165235168157
    vertex 4.5 0.3582531754730548 0.625
  endloop
endfacet
facet normal 1.0 0.0 0.0
  outer loop
    vertex 4.5 0.3582531754730548 0.625
    vertex 4.5 0.3383883476483185 0.47411165235168157
    vertex 4.5 0.3582531754730549 0.5000000000000001
  endloop
endfacet
facet normal 1.0 0.0 0.0
  outer loop
    vertex 4.5 0.3582531754730548 0.625
    vertex 4.5 0.3582531754730549 0.5000000000000001
    vertex 4.5 0.3707407282861335 0.5948523806378152
  endloop
endfacet
facet normal 1.0 0.0 0.0
  outer loop
    vertex 4.5 0.3707407282861335 0.5948523806378152
    vertex 4.5 0.3582531754730549 0.5000000000000001
    vertex 4.5 0.3707407282861336 0.530147619362185
  endloop
endfacet
facet normal 1.0 0.0 0.0
  outer loop
    vertex 4.5 0.3707407282861335 0.5948523806378152
    vertex 4.5 0.3707407282861336 0.530147619362185
    vertex 4.5 0.375 0.5625
  endloop
endfacet
facet normal -0.5 -0.8660254037844387 0.0
  outer loop
    vertex 0.25 0.35825317547305485 0.75
    vertex 0.2198523806378151 0.3707407282861335 0.0
    vertex 0.25 0.35825317547305485 0.0
  endloop
endfacet
facet normal -0.2588190451025205 -0.9659258262890684 0.0
  outer loop
    vertex 0.2198523806378151 0.3707407282861335 0.0
    vertex 0.25 0.35825317547305485 0.75
    vertex 0.2198523806378151 0.3707407282861335 0.75
  endloop
endfacet
facet normal 0.0 -1.0 -3.920888354084638e-16
  outer loop
    vertex 7.5 0.375 0.5625
    vertex 4.5 0.3707407282861336 0.530147619362185
    vertex 7.5 0.3707407282861336 0.530147619362185
  endloop
endfacet
facet normal 0.0 -0.9659258262890686 0.2588190451025199
  outer loop
    vertex 4.5 0.3707407282861336 0.530147619362185
    vertex 7.5 0.375 0.5625
    vertex 4.5 0.375 0.5625
  endloop
endfacet
facet normal 0.0 -0.25881904510252135 0.9659258262890682
  outer loop
    vertex 7.5 0.2823523806378152 0.06675927171386649
    vertex 4.5 0.31250000000000006 0.0792468245269452
    vertex 4.5 0.2823523806378152 0.06675927171386649
  endloop
endfacet
facet normal 0.0 -0.5000000000000003 0.8660254037844386
  outer loop
    vertex 4.5 0.31250000000000006 0.0792468245269452
    vertex 7.5 0.2823523806378152 0.06675927171386649
    vertex 7.5 0.31250000000000006 0.0792468245269452
  endloop
endfacet
facet normal 0.0 -0.9659258262890681 -0.25881904510252157
  outer loop
    vertex 7.5 0.3707407282861335 0.5948523806378152
    vertex 4.5 0.375 0.5625
    vertex 7.5 0.375 0.5625
  endloop
endfacet
facet normal 0.0 -1.0 -3.920888354084638e-16
  outer loop
    vertex 4.5 0.375 0.5625
    vertex 7.5 0.3707407282861335 0.5948523806378152
    vertex 4.5 0.3707407282861335 0.5948523806378152
  endloop
endfacet
facet normal -0.5000000000000004 0.8660254037844384 0.0
  outer loop
    vertex 0.25000000000000006 0.1417468245269452 0.75
    vertex 0.27588834764831843 0.16161165235168157 0.0
    vertex 0.25000000000000006 0.1417468245269452 0.0
  endloop
endfacet
facet normal -0.7071067811865476 0.7071067811865475 0.0
  outer loop
    vertex 0.27588834764831843 0.16161165235168157 0.0
    vertex 0.25000000000000006 0.1417468245269452 0.75
    vertex 0.27588834764831843 0.16161165235168157 0.75
  endloop
endfacet
facet normal 0.0 -0.8660254037844383 -0.5000000000000007
  outer loop
    vertex 7.5 0.3582531754730548 0.625
    vertex 4.5 0.3707407282861335 0.5948523806378152
    vertex 7.5 0.3707407282861335 0.5948523806378152
  endloop
endfacet
facet normal 0.0 -0.9659258262890681 -0.25881904510252157
  outer loop
    vertex 4.5 0.3707407282861335 0.5948523806378152
    vertex 7.5 0.3582531754730548 0.625
    vertex 4.5 0.3582531754730548 0.625
  endloop
endfacet
facet normal 0.0 -0.7071067811865479 -0.7071067811865471
  outer loop
    vertex 7.5 0.3383883476483184 0.6508883476483185
    vertex 4.5 0.3582531754730548 0.625
    vertex 7.5 0.3582531754730548 0.625
  endloop
endfacet
facet normal 0.0 -0.8660254037844383 -0.5000000000000007
  outer loop
    vertex 4.5 0.3582531754730548 0.625
    vertex 7.5 0.3383883476483184 0.6508883476483185
    vertex 4.5 0.3383883476483184 0.6508883476483185
  endloop
endfacet
facet normal 0.0 -0.7071067811865479 -0.7071067811865471
  outer loop
    vertex 7.5 0.3383883476483184 0.6508883476483185
    vertex 4.5 0.31249999999999994 0.6707531754730549
    vertex 4.5 0.3383883476483184 0.6508883476483185
  endloop
endfacet
facet normal 0.0 -0.5 -0.8660254037844387
  outer loop
    vertex 4.5 0.31249999999999994 0.6707531754730549
    vertex 7.5 0.3383883476483184 0.6508883476483185
    vertex 7.5 0.31249999999999994 0.6707531754730549
  endloop
endfacet
facet normal 0.0 -0.5 -0.8660254037844387
  outer loop
    vertex 7.5 0.31249999999999994 0.6707531754730549
    vertex 4.5 0.28235238063781504 0.6832407282861336
    vertex 4.5 0.31249999999999994 0.6707531754730549
  endloop
endfacet
facet normal 0.0 -0.2588190451025198 -0.9659258262890686
  outer loop
    vertex 4.5 0.28235238063781504 0.6832407282861336
    vertex 7.5 0.31249999999999994 0.6707531754730549
    vertex 7.5 0.28235238063781504 0.6832407282861336
  endloop
endfacet
facet normal 0.0 0.8660254037844386 0.5
  outer loop
    vertex 4.5 0.14174682452694518 0.12499999999999999
    vertex 7.5 0.16161165235168157 0.09911165235168155
    vertex 4.5 0.16161165235168157 0.09911165235168155
  endloop
endfacet
facet normal 0.0 0.7071067811865475 0.7071067811865475
  outer loop
    vertex 7.5 0.16161165235168157 0.09911165235168155
    vertex 4.5 0.14174682452694518 0.12499999999999999
    vertex 7.5 0.14174682452694518 0.12499999999999999
  endloop
endfacet
facet normal -0.9659258262890682 -0.2588190451025212 0.0
  outer loop
    vertex 0.3082407282861335 0.2823523806378151 0.75
    vertex 0.3125 0.25 0.0
    vertex 0.3125 0.25 0.75
  endloop
endfacet
facet normal -1.0 0.0 0.0
  outer loop
    vertex 0.3125 0.25 0.0
    vertex 0.3082407282861335 0.2823523806378151 0.75
    vertex 0.3082407282861335 0.2823523806378151 0.0
  endloop
endfacet
facet normal 0.0 -0.9659258262890681 -0.25881904510252135
  outer loop
    vertex 7.5 0.3707407282861335 0.2198523806378152
    vertex 4.5 0.375 0.18750000000000003
    vertex 7.5 0.375 0.18750000000000003
  endloop
endfacet
facet normal 0.0 -1.0 -6.148665827996364e-16
  outer loop
    vertex 4.5 0.375 0.18750000000000003
    vertex 7.5 0.3707407282861335 0.2198523806378152
    vertex 4.5 0.3707407282861335 0.2198523806378152
  endloop
endfacet
facet normal 0.0 -1.0 -6.148665827996364e-16
  outer loop
    vertex 7.5 0.375 0.18750000000000003
    vertex 4.5 0.3707407282861336 0.15514761936218496
    vertex 7.5 0.3707407282861336 0.15514761936218496
  endloop
endfacet
facet normal 0.0 -0.9659258262890686 0.2588190451025199
  outer loop
    vertex 4.5 0.3707407282861336 0.15514761936218496
    vertex 7.5 0.375 0.18750000000000003
    vertex 4.5 0.375 0.18750000000000003
  endloop
endfacet
facet normal -0.707106781186548 -0.707106781186547 0.0
  outer loop
    vertex 0.27588834764831843 0.33838834764831843 0.75
    vertex 0.2957531754730548 0.3125 0.0
    vertex 0.2957531754730548 0.3125 0.75
  endloop
endfacet
facet normal -0.8660254037844387 -0.5000000000000001 0.0
  outer loop
    vertex 0.2957531754730548 0.3125 0.0
    vertex 0.27588834764831843 0.33838834764831843 0.75
    vertex 0.27588834764831843 0.33838834764831843 0.0
  endloop
endfacet
facet normal 0.0 -0.866025403784438 -0.5000000000000009
  outer loop
    vertex 7.5 0.3582531754730548 0.25000000000000006
    vertex 4.5 0.3707407282861335 0.2198523806378152
    vertex 7.5 0.3707407282861335 0.2198523806378152
  endloop
endfacet
facet normal 0.0 -0.9659258262890681 -0.25881904510252135
  outer loop
    vertex 4.5 0.3707407282861335 0.2198523806378152
    vertex 7.5 0.3582531754730548 0.25000000000000006
    vertex 4.5 0.3582531754730548 0.25000000000000006
  endloop
endfacet
facet normal 0.0 -1.0 0.0
  outer loop
    vertex 7.5 0.0 0.75
    vertex 0.1875 0.0 0.0
    vertex 7.5 0.0 0.0
  endloop
endfacet
facet normal 0.0 -1.0 0.0
  outer loop
    vertex 0.1875 0.0 0.0
    vertex 7.5 0.0 0.75
    vertex 0.1875 0.0 0.75
  endloop
endfacet
facet normal 0.0 0.9659258262890683 0.25881904510252085
  outer loop
    vertex 4.5 0.12925927171386647 0.5301476193621849
    vertex 7.5 0.14174682452694518 0.5
    vertex 4.5 0.14174682452694518 0.5
  endloop
endfacet
facet normal 0.0 0.8660254037844387 0.5
  outer loop
    vertex 7.5 0.14174682452694518 0.5
    vertex 4.5 0.12925927171386647 0.5301476193621849
    vertex 7.5 0.12925927171386647 0.5301476193621849
  endloop
endfacet
facet normal 0.0 1.0 0.0
  outer loop
    vertex 4.5 0.125 0.5625
    vertex 7.5 0.12925927171386647 0.5301476193621849
    vertex 4.5 0.12925927171386647 0.5301476193621849
  endloop
endfacet
facet normal 0.0 0.9659258262890683 0.25881904510252085
  outer loop
    vertex 7.5 0.12925927171386647 0.5301476193621849
    vertex 4.5 0.125 0.5625
    vertex 7.5 0.125 0.5625
  endloop
endfacet
facet normal 0.0 2.2277774739117265e-16 1.0
  outer loop
    vertex 7.5 0.25 0.4375
    vertex 4.5 0.2823523806378152 0.4417592717138665
    vertex 4.5 0.25 0.4375
  endloop
endfacet
facet normal 0.0 -0.2588190451025213 0.9659258262890681
  outer loop
    vertex 4.5 0.2823523806378152 0.4417592717138665
    vertex 7.5 0.25 0.4375
    vertex 7.5 0.2823523806378152 0.4417592717138665
  endloop
endfacet
facet normal 0.0 0.7071067811865477 0.7071067811865474
  outer loop
    vertex 7.5 0.16161165235168157 0.47411165235168157
    vertex 4.5 0.1875 0.45424682452694515
    vertex 4.5 0.16161165235168157 0.47411165235168157
  endloop
endfacet
facet normal 0.0 0.5 0.8660254037844387
  outer loop
    vertex 4.5 0.1875 0.45424682452694515
    vertex 7.5 0.16161165235168157 0.47411165235168157
    vertex 7.5 0.1875 0.45424682452694515
  endloop
endfacet
facet normal 0.0 0.2588190451025205 0.9659258262890684
  outer loop
    vertex 7.5 0.2176476193621849 0.4417592717138665
    vertex 4.5 0.25 0.4375
    vertex 4.5 0.2176476193621849 0.4417592717138665
  endloop
endfacet
facet normal 0.0 2.2277774739117265e-16 1.0
  outer loop
    vertex 4.5 0.25 0.4375
    vertex 7.5 0.2176476193621849 0.4417592717138665
    vertex 7.5 0.25 0.4375
  endloop
endfacet
facet normal 0.0 1.6218220010077369e-15 -1.0
  outer loop
    vertex 7.5 0.24999999999999997 0.6875
    vertex 4.5 0.21764761936218488 0.6832407282861335
    vertex 4.5 0.24999999999999997 0.6875
  endloop
endfacet
facet normal 0.0 0.25881904510252113 -0.9659258262890682
  outer loop
    vertex 4.5 0.21764761936218488 0.6832407282861335
    vertex 7.5 0.24999999999999997 0.6875
    vertex 7.5 0.21764761936218488 0.6832407282861335
  endloop
endfacet
facet normal 0.0 0.25881904510252113 -0.9659258262890682
  outer loop
    vertex 7.5 0.21764761936218488 0.6832407282861335
    vertex 4.5 0.18749999999999994 0.6707531754730548
    vertex 4.5 0.21764761936218488 0.6832407282861335
  endloop
endfacet
facet normal 0.0 0.49999999999999917 -0.8660254037844392
  outer loop
    vertex 4.5 0.18749999999999994 0.6707531754730548
    vertex 7.5 0.21764761936218488 0.6832407282861335
    vertex 7.5 0.18749999999999994 0.6707531754730548
  endloop
endfacet
facet normal 0.0 0.49999999999999917 -0.8660254037844392
  outer loop
    vertex 7.5 0.18749999999999994 0.6707531754730548
    vertex 4.5 0.16161165235168157 0.6508883476483185
    vertex 4.5 0.18749999999999994 0.6707531754730548
  endloop
endfacet
facet normal 0.0 0.7071067811865475 -0.7071067811865477
  outer loop
    vertex 4.5 0.16161165235168157 0.6508883476483185
    vertex 7.5 0.18749999999999994 0.6707531754730548
    vertex 7.5 0.16161165235168157 0.6508883476483185
  endloop
endfacet
facet normal 0.0 0.9659258262890684 -0.2588190451025205
  outer loop
    vertex 4.5 0.12925927171386647 0.5948523806378151
    vertex 7.5 0.125 0.5625
    vertex 4.5 0.125 0.5625
  endloop
endfacet
facet normal 0.0 1.0 0.0
  outer loop
    vertex 7.5 0.125 0.5625
    vertex 4.5 0.12925927171386647 0.5948523806378151
    vertex 7.5 0.12925927171386647 0.5948523806378151
  endloop
endfacet
facet normal 0.0 0.7071067811865475 -0.7071067811865477
  outer loop
    vertex 4.5 0.16161165235168157 0.6508883476483185
    vertex 7.5 0.14174682452694515 0.625
    vertex 4.5 0.14174682452694515 0.625
  endloop
endfacet
facet normal 0.0 0.8660254037844389 -0.49999999999999956
  outer loop
    vertex 7.5 0.14174682452694515 0.625
    vertex 4.5 0.16161165235168157 0.6508883476483185
    vertex 7.5 0.16161165235168157 0.6508883476483185
  endloop
endfacet
facet normal 0.0 0.5 0.8660254037844387
  outer loop
    vertex 7.5 0.1875 0.45424682452694515
    vertex 4.5 0.2176476193621849 0.4417592717138665
    vertex 4.5 0.1875 0.45424682452694515
  endloop
endfacet
facet normal 0.0 0.2588190451025205 0.9659258262890684
  outer loop
    vertex 4.5 0.2176476193621849 0.4417592717138665
    vertex 7.5 0.1875 0.45424682452694515
    vertex 7.5 0.2176476193621849 0.4417592717138665
  endloop
endfacet
facet normal 0.0 -0.5000000000000003 0.8660254037844386
  outer loop
    vertex 7.5 0.31250000000000006 0.4542468245269452
    vertex 4.5 0.3383883476483185 0.47411165235168157
    vertex 4.5 0.31250000000000006 0.4542468245269452
  endloop
endfacet
facet normal 0.0 -0.7071067811865478 0.7071067811865472
  outer loop
    vertex 4.5 0.3383883476483185 0.47411165235168157
    vertex 7.5 0.31250000000000006 0.4542468245269452
    vertex 7.5 0.3383883476483185 0.47411165235168157
  endloop
endfacet
facet normal 0.0 -0.8660254037844393 0.4999999999999991
  outer loop
    vertex 7.5 0.3582531754730549 0.5000000000000001
    vertex 4.5 0.3383883476483185 0.47411165235168157
    vertex 7.5 0.3383883476483185 0.47411165235168157
  endloop
endfacet
facet normal 0.0 -0.7071067811865478 0.7071067811865472
  outer loop
    vertex 4.5 0.3383883476483185 0.47411165235168157
    vertex 7.5 0.3582531754730549 0.5000000000000001
    vertex 4.5 0.3582531754730549 0.5000000000000001
  endloop
endfacet
facet normal 0.0 0.8660254037844389 -0.49999999999999956
  outer loop
    vertex 4.5 0.14174682452694515 0.625
    vertex 7.5 0.12925927171386647 0.5948523806378151
    vertex 4.5 0.12925927171386647 0.5948523806378151
  endloop
endfacet
facet normal 0.0 0.9659258262890684 -0.2588190451025205
  outer loop
    vertex 7.5 0.12925927171386647 0.5948523806378151
    vertex 4.5 0.14174682452694515 0.625
    vertex 7.5 0.14174682452694515 0.625
  endloop
endfacet
facet normal 0.0 -0.2588190451025213 0.9659258262890681
  outer loop
    vertex 7.5 0.2823523806378152 0.4417592717138665
    vertex 4.5 0.31250000000000006 0.4542468245269452
    vertex 4.5 0.2823523806378152 0.4417592717138665
  endloop
endfacet
facet normal 0.0 -0.5000000000000003 0.8660254037844386
  outer loop
    vertex 4.5 0.31250000000000006 0.4542468245269452
    vertex 7.5 0.2823523806378152 0.4417592717138665
    vertex 7.5 0.31250000000000006 0.4542468245269452
  endloop
endfacet
facet normal 0.0 -0.9659258262890686 0.2588190451025199
  outer loop
    vertex 7.5 0.3707407282861336 0.530147619362185
    vertex 4.5 0.3582531754730549 0.5000000000000001
    vertex 7.5 0.3582531754730549 0.5000000000000001
  endloop
endfacet
facet normal 0.0 -0.8660254037844393 0.4999999999999991
  outer loop
    vertex 4.5 0.3582531754730549 0.5000000000000001
    vertex 7.5 0.3707407282861336 0.530147619362185
    vertex 4.5 0.3707407282861336 0.530147619362185
  endloop
endfacet
facet normal 0.0 0.8660254037844387 0.5
  outer loop
    vertex 4.5 0.14174682452694518 0.5
    vertex 7.5 0.16161165235168157 0.47411165235168157
    vertex 4.5 0.16161165235168157 0.47411165235168157
  endloop
endfacet
facet normal 0.0 0.7071067811865477 0.7071067811865474
  outer loop
    vertex 7.5 0.16161165235168157 0.47411165235168157
    vertex 4.5 0.14174682452694518 0.5
    vertex 7.5 0.14174682452694518 0.5
  endloop
endfacet
facet normal 0.0 -0.2588190451025198 -0.9659258262890686
  outer loop
    vertex 7.5 0.28235238063781504 0.6832407282861336
    vertex 4.5 0.24999999999999997 0.6875
    vertex 4.5 0.28235238063781504 0.6832407282861336
  endloop
endfacet
facet normal 0.0 1.6218220010077369e-15 -1.0
  outer loop
    vertex 4.5 0.24999999999999997 0.6875
    vertex 7.5 0.28235238063781504 0.6832407282861336
    vertex 7.5 0.24999999999999997 0.6875
  endloop
endfacet
endsolid MountArm
